<svg width="290" height="182" viewBox="0 0 290 182" fill="none" xmlns="http://www.w3.org/2000/svg">
<rect x="0.5" y="0.846802" width="288.052" height="179.782" rx="2.5" stroke="#C8D3E2" stroke-dasharray="5 5"/>
<path d="M71.5277 152.039V150.866L77.4947 142.604H79.3477V150.696H81.0477V152.039H79.3477V154.776H77.8177V152.039H71.5277ZM77.8857 144.219L73.3127 150.696H77.8857V144.219ZM83.3411 154.878C83.0465 154.878 82.7971 154.776 82.5931 154.572C82.3891 154.368 82.2871 154.119 82.2871 153.824C82.2871 153.529 82.3891 153.28 82.5931 153.076C82.7971 152.872 83.0465 152.77 83.3411 152.77C83.6245 152.77 83.8625 152.872 84.0551 153.076C84.2591 153.28 84.3611 153.529 84.3611 153.824C84.3611 154.119 84.2591 154.368 84.0551 154.572C83.8625 154.776 83.6245 154.878 83.3411 154.878ZM88.4065 148.384C87.7718 148.135 87.2845 147.772 86.9445 147.296C86.6045 146.82 86.4345 146.242 86.4345 145.562C86.4345 144.95 86.5875 144.4 86.8935 143.913C87.1995 143.414 87.6528 143.023 88.2535 142.74C88.8655 142.445 89.6021 142.298 90.4635 142.298C91.3248 142.298 92.0558 142.445 92.6565 142.74C93.2685 143.023 93.7275 143.414 94.0335 143.913C94.3508 144.4 94.5095 144.95 94.5095 145.562C94.5095 146.219 94.3338 146.797 93.9825 147.296C93.6311 147.783 93.1495 148.146 92.5375 148.384C93.2401 148.599 93.7955 148.979 94.2035 149.523C94.6228 150.056 94.8325 150.702 94.8325 151.461C94.8325 152.198 94.6511 152.844 94.2885 153.399C93.9258 153.943 93.4101 154.368 92.7415 154.674C92.0841 154.969 91.3248 155.116 90.4635 155.116C89.6021 155.116 88.8428 154.969 88.1855 154.674C87.5395 154.368 87.0351 153.943 86.6725 153.399C86.3098 152.844 86.1285 152.198 86.1285 151.461C86.1285 150.702 86.3325 150.05 86.7405 149.506C87.1485 148.962 87.7038 148.588 88.4065 148.384ZM93.0135 145.749C93.0135 145.058 92.7868 144.525 92.3335 144.151C91.8801 143.777 91.2568 143.59 90.4635 143.59C89.6815 143.59 89.0638 143.777 88.6105 144.151C88.1571 144.525 87.9305 145.063 87.9305 145.766C87.9305 146.401 88.1628 146.911 88.6275 147.296C89.1035 147.681 89.7155 147.874 90.4635 147.874C91.2228 147.874 91.8348 147.681 92.2995 147.296C92.7755 146.899 93.0135 146.384 93.0135 145.749ZM90.4635 149.064C89.6248 149.064 88.9391 149.262 88.4065 149.659C87.8738 150.044 87.6075 150.628 87.6075 151.41C87.6075 152.135 87.8625 152.719 88.3725 153.161C88.8938 153.603 89.5908 153.824 90.4635 153.824C91.3361 153.824 92.0275 153.603 92.5375 153.161C93.0475 152.719 93.3025 152.135 93.3025 151.41C93.3025 150.651 93.0418 150.073 92.5205 149.676C91.9991 149.268 91.3135 149.064 90.4635 149.064ZM96.4791 143.896V142.485H99.6751V154.776H98.1111V143.896H96.4791ZM111.098 157.938C110.01 156.873 109.16 155.518 108.548 153.875C107.947 152.232 107.647 150.458 107.647 148.554C107.647 146.605 107.964 144.786 108.599 143.097C109.245 141.397 110.163 139.997 111.353 138.898H112.968V139.051C111.698 140.241 110.741 141.675 110.095 143.352C109.46 145.018 109.143 146.752 109.143 148.554C109.143 150.311 109.443 151.988 110.044 153.586C110.656 155.184 111.545 156.584 112.713 157.785V157.938H111.098ZM116.828 148.384C116.194 148.135 115.706 147.772 115.366 147.296C115.026 146.82 114.856 146.242 114.856 145.562C114.856 144.95 115.009 144.4 115.315 143.913C115.621 143.414 116.075 143.023 116.675 142.74C117.287 142.445 118.024 142.298 118.885 142.298C119.747 142.298 120.478 142.445 121.078 142.74C121.69 143.023 122.149 143.414 122.455 143.913C122.773 144.4 122.931 144.95 122.931 145.562C122.931 146.219 122.756 146.797 122.404 147.296C122.053 147.783 121.571 148.146 120.959 148.384C121.662 148.599 122.217 148.979 122.625 149.523C123.045 150.056 123.254 150.702 123.254 151.461C123.254 152.198 123.073 152.844 122.71 153.399C122.348 153.943 121.832 154.368 121.163 154.674C120.506 154.969 119.747 155.116 118.885 155.116C118.024 155.116 117.265 154.969 116.607 154.674C115.961 154.368 115.457 153.943 115.094 153.399C114.732 152.844 114.55 152.198 114.55 151.461C114.55 150.702 114.754 150.05 115.162 149.506C115.57 148.962 116.126 148.588 116.828 148.384ZM121.435 145.749C121.435 145.058 121.209 144.525 120.755 144.151C120.302 143.777 119.679 143.59 118.885 143.59C118.103 143.59 117.486 143.777 117.032 144.151C116.579 144.525 116.352 145.063 116.352 145.766C116.352 146.401 116.585 146.911 117.049 147.296C117.525 147.681 118.137 147.874 118.885 147.874C119.645 147.874 120.257 147.681 120.721 147.296C121.197 146.899 121.435 146.384 121.435 145.749ZM118.885 149.064C118.047 149.064 117.361 149.262 116.828 149.659C116.296 150.044 116.029 150.628 116.029 151.41C116.029 152.135 116.284 152.719 116.794 153.161C117.316 153.603 118.013 153.824 118.885 153.824C119.758 153.824 120.449 153.603 120.959 153.161C121.469 152.719 121.724 152.135 121.724 151.41C121.724 150.651 121.464 150.073 120.942 149.676C120.421 149.268 119.735 149.064 118.885 149.064ZM127.553 148.384C126.918 148.135 126.431 147.772 126.091 147.296C125.751 146.82 125.581 146.242 125.581 145.562C125.581 144.95 125.734 144.4 126.04 143.913C126.346 143.414 126.799 143.023 127.4 142.74C128.012 142.445 128.749 142.298 129.61 142.298C130.471 142.298 131.202 142.445 131.803 142.74C132.415 143.023 132.874 143.414 133.18 143.913C133.497 144.4 133.656 144.95 133.656 145.562C133.656 146.219 133.48 146.797 133.129 147.296C132.778 147.783 132.296 148.146 131.684 148.384C132.387 148.599 132.942 148.979 133.35 149.523C133.769 150.056 133.979 150.702 133.979 151.461C133.979 152.198 133.798 152.844 133.435 153.399C133.072 153.943 132.557 154.368 131.888 154.674C131.231 154.969 130.471 155.116 129.61 155.116C128.749 155.116 127.989 154.969 127.332 154.674C126.686 154.368 126.182 153.943 125.819 153.399C125.456 152.844 125.275 152.198 125.275 151.461C125.275 150.702 125.479 150.05 125.887 149.506C126.295 148.962 126.85 148.588 127.553 148.384ZM132.16 145.749C132.16 145.058 131.933 144.525 131.48 144.151C131.027 143.777 130.403 143.59 129.61 143.59C128.828 143.59 128.21 143.777 127.757 144.151C127.304 144.525 127.077 145.063 127.077 145.766C127.077 146.401 127.309 146.911 127.774 147.296C128.25 147.681 128.862 147.874 129.61 147.874C130.369 147.874 130.981 147.681 131.446 147.296C131.922 146.899 132.16 146.384 132.16 145.749ZM129.61 149.064C128.771 149.064 128.086 149.262 127.553 149.659C127.02 150.044 126.754 150.628 126.754 151.41C126.754 152.135 127.009 152.719 127.519 153.161C128.04 153.603 128.737 153.824 129.61 153.824C130.483 153.824 131.174 153.603 131.684 153.161C132.194 152.719 132.449 152.135 132.449 151.41C132.449 150.651 132.188 150.073 131.667 149.676C131.146 149.268 130.46 149.064 129.61 149.064ZM135.626 143.896V142.485H138.822V154.776H137.258V143.896H135.626ZM147.813 146.973C148.085 146.44 148.47 146.027 148.969 145.732C149.479 145.437 150.097 145.29 150.822 145.29V146.888H150.414C148.68 146.888 147.813 147.829 147.813 149.71V154.776H146.266V145.46H147.813V146.973ZM161.108 149.761C161.108 150.056 161.091 150.367 161.057 150.696H153.611C153.668 151.614 153.979 152.334 154.546 152.855C155.124 153.365 155.821 153.62 156.637 153.62C157.306 153.62 157.861 153.467 158.303 153.161C158.756 152.844 159.074 152.424 159.255 151.903H160.921C160.672 152.798 160.173 153.529 159.425 154.096C158.677 154.651 157.748 154.929 156.637 154.929C155.753 154.929 154.96 154.731 154.257 154.334C153.566 153.937 153.022 153.376 152.625 152.651C152.228 151.914 152.03 151.064 152.03 150.101C152.03 149.138 152.223 148.293 152.608 147.568C152.993 146.843 153.532 146.287 154.223 145.902C154.926 145.505 155.73 145.307 156.637 145.307C157.521 145.307 158.303 145.5 158.983 145.885C159.663 146.27 160.184 146.803 160.547 147.483C160.921 148.152 161.108 148.911 161.108 149.761ZM159.51 149.438C159.51 148.849 159.38 148.344 159.119 147.925C158.858 147.494 158.501 147.171 158.048 146.956C157.606 146.729 157.113 146.616 156.569 146.616C155.787 146.616 155.118 146.865 154.563 147.364C154.019 147.863 153.707 148.554 153.628 149.438H159.51ZM166.618 153.348L169.508 145.46H171.157L167.502 154.776H165.7L162.045 145.46H163.711L166.618 153.348ZM173.478 143.947C173.184 143.947 172.934 143.845 172.73 143.641C172.526 143.437 172.424 143.188 172.424 142.893C172.424 142.598 172.526 142.349 172.73 142.145C172.934 141.941 173.184 141.839 173.478 141.839C173.762 141.839 174 141.941 174.192 142.145C174.396 142.349 174.498 142.598 174.498 142.893C174.498 143.188 174.396 143.437 174.192 143.641C174 143.845 173.762 143.947 173.478 143.947ZM174.226 145.46V154.776H172.679V145.46H174.226ZM185.363 149.761C185.363 150.056 185.346 150.367 185.312 150.696H177.866C177.922 151.614 178.234 152.334 178.801 152.855C179.379 153.365 180.076 153.62 180.892 153.62C181.56 153.62 182.116 153.467 182.558 153.161C183.011 152.844 183.328 152.424 183.51 151.903H185.176C184.926 152.798 184.428 153.529 183.68 154.096C182.932 154.651 182.002 154.929 180.892 154.929C180.008 154.929 179.214 154.731 178.512 154.334C177.82 153.937 177.276 153.376 176.88 152.651C176.483 151.914 176.285 151.064 176.285 150.101C176.285 149.138 176.477 148.293 176.863 147.568C177.248 146.843 177.786 146.287 178.478 145.902C179.18 145.505 179.985 145.307 180.892 145.307C181.776 145.307 182.558 145.5 183.238 145.885C183.918 146.27 184.439 146.803 184.802 147.483C185.176 148.152 185.363 148.911 185.363 149.761ZM183.765 149.438C183.765 148.849 183.634 148.344 183.374 147.925C183.113 147.494 182.756 147.171 182.303 146.956C181.861 146.729 181.368 146.616 180.824 146.616C180.042 146.616 179.373 146.865 178.818 147.364C178.274 147.863 177.962 148.554 177.883 149.438H183.765ZM199.815 145.46L196.908 154.776H195.31L193.066 147.381L190.822 154.776H189.224L186.3 145.46H187.881L190.023 153.28L192.335 145.46H193.916L196.177 153.297L198.285 145.46H199.815ZM204.648 154.929C203.934 154.929 203.294 154.81 202.727 154.572C202.16 154.323 201.713 153.983 201.384 153.552C201.055 153.11 200.874 152.606 200.84 152.039H202.438C202.483 152.504 202.699 152.883 203.084 153.178C203.481 153.473 203.996 153.62 204.631 153.62C205.22 153.62 205.685 153.49 206.025 153.229C206.365 152.968 206.535 152.64 206.535 152.243C206.535 151.835 206.354 151.535 205.991 151.342C205.628 151.138 205.067 150.94 204.308 150.747C203.617 150.566 203.05 150.384 202.608 150.203C202.177 150.01 201.803 149.733 201.486 149.37C201.18 148.996 201.027 148.509 201.027 147.908C201.027 147.432 201.169 146.996 201.452 146.599C201.735 146.202 202.138 145.891 202.659 145.664C203.18 145.426 203.775 145.307 204.444 145.307C205.475 145.307 206.308 145.568 206.943 146.089C207.578 146.61 207.918 147.324 207.963 148.231H206.416C206.382 147.744 206.184 147.353 205.821 147.058C205.47 146.763 204.994 146.616 204.393 146.616C203.838 146.616 203.396 146.735 203.067 146.973C202.738 147.211 202.574 147.523 202.574 147.908C202.574 148.214 202.67 148.469 202.863 148.673C203.067 148.866 203.316 149.024 203.611 149.149C203.917 149.262 204.336 149.393 204.869 149.54C205.538 149.721 206.082 149.903 206.501 150.084C206.92 150.254 207.277 150.515 207.572 150.866C207.878 151.217 208.037 151.676 208.048 152.243C208.048 152.753 207.906 153.212 207.623 153.62C207.34 154.028 206.937 154.351 206.416 154.589C205.906 154.816 205.317 154.929 204.648 154.929ZM209.739 157.938V157.785C210.906 156.584 211.79 155.184 212.391 153.586C213.003 151.988 213.309 150.311 213.309 148.554C213.309 146.752 212.986 145.018 212.34 143.352C211.705 141.675 210.753 140.241 209.484 139.051V138.898H211.099C212.289 139.997 213.201 141.397 213.836 143.097C214.482 144.786 214.805 146.605 214.805 148.554C214.805 150.458 214.499 152.232 213.887 153.875C213.286 155.518 212.442 156.873 211.354 157.938H209.739Z" fill="#080808"/>
<g clip-path="url(#clip0)">
<path d="M82.1007 105.141L84.8691 110.75C85.0616 111.14 85.4338 111.411 85.8644 111.473L92.0551 112.373C93.1395 112.531 93.5721 113.863 92.7877 114.627L88.3082 118.994C87.9969 119.297 87.8546 119.735 87.9283 120.163L88.9856 126.329C89.1709 127.409 88.0374 128.232 87.0676 127.723L81.5308 124.812C81.1458 124.61 80.6855 124.61 80.3005 124.812L74.7637 127.723C73.7939 128.233 72.6604 127.409 72.8457 126.329L73.903 120.163C73.9767 119.735 73.8344 119.297 73.5231 118.994L69.0436 114.627C68.2592 113.862 68.6918 112.53 69.7762 112.373L75.9669 111.473C76.3975 111.411 76.7697 111.14 76.9622 110.75L79.7306 105.141C80.215 104.158 81.6158 104.158 82.1007 105.141Z" fill="#F8CF40"/>
</g>
<g clip-path="url(#clip1)">
<path d="M113.464 105.141L116.233 110.75C116.425 111.14 116.797 111.411 117.228 111.473L123.419 112.373C124.503 112.531 124.936 113.863 124.151 114.627L119.672 118.994C119.36 119.297 119.218 119.735 119.292 120.163L120.349 126.329C120.535 127.409 119.401 128.232 118.431 127.723L112.894 124.812C112.509 124.61 112.049 124.61 111.664 124.812L106.127 127.723C105.158 128.233 104.024 127.409 104.209 126.329L105.267 120.163C105.34 119.735 105.198 119.297 104.887 118.994L100.407 114.627C99.6228 113.862 100.055 112.53 101.14 112.373L107.33 111.473C107.761 111.411 108.133 111.14 108.326 110.75L111.094 105.141C111.579 104.158 112.979 104.158 113.464 105.141Z" fill="#F8CF40"/>
</g>
<g clip-path="url(#clip2)">
<path d="M144.828 105.141L147.596 110.75C147.789 111.14 148.161 111.411 148.592 111.473L154.782 112.373C155.867 112.531 156.299 113.863 155.515 114.627L151.036 118.994C150.724 119.297 150.582 119.735 150.656 120.163L151.713 126.329C151.898 127.409 150.765 128.232 149.795 127.723L144.258 124.812C143.873 124.61 143.413 124.61 143.028 124.812L137.491 127.723C136.521 128.233 135.388 127.409 135.573 126.329L136.63 120.163C136.704 119.735 136.562 119.297 136.25 118.994L131.771 114.627C130.986 113.862 131.419 112.53 132.504 112.373L138.694 111.473C139.125 111.411 139.497 111.14 139.69 110.75L142.458 105.141C142.942 104.158 144.343 104.158 144.828 105.141Z" fill="#F8CF40"/>
</g>
<g clip-path="url(#clip3)">
<path d="M176.192 105.141L178.96 110.75C179.153 111.14 179.525 111.411 179.955 111.473L186.146 112.373C187.23 112.531 187.663 113.863 186.879 114.627L182.399 118.994C182.088 119.297 181.945 119.735 182.019 120.163L183.076 126.329C183.262 127.409 182.128 128.232 181.159 127.723L175.622 124.812C175.237 124.61 174.776 124.61 174.391 124.812L168.855 127.723C167.885 128.233 166.751 127.409 166.937 126.329L167.994 120.163C168.068 119.735 167.925 119.297 167.614 118.994L163.134 114.627C162.35 113.862 162.783 112.53 163.867 112.373L170.058 111.473C170.488 111.411 170.861 111.14 171.053 110.75L173.822 105.141C174.306 104.158 175.707 104.158 176.192 105.141Z" fill="#F8CF40"/>
</g>
<g clip-path="url(#clip4)">
<path d="M207.555 105.677L210.324 111.286C210.516 111.676 210.888 111.947 211.319 112.009L217.51 112.909C218.594 113.066 219.027 114.399 218.242 115.163L213.763 119.529C213.451 119.833 213.309 120.271 213.383 120.699L214.44 126.865C214.625 127.945 213.492 128.768 212.522 128.259L206.985 125.348C206.6 125.146 206.14 125.146 205.755 125.348L200.218 128.259C199.248 128.769 198.115 127.945 198.3 126.865L199.358 120.699C199.431 120.271 199.289 119.833 198.978 119.529L194.498 115.163C193.714 114.398 194.146 113.066 195.231 112.909L201.421 112.009C201.852 111.947 202.224 111.676 202.417 111.286L205.185 105.677C205.67 104.694 207.07 104.694 207.555 105.677Z" fill="url(#paint0_linear)"/>
</g>
<path d="M77.7059 89.8962C76.3293 89.8962 74.9624 89.6603 73.6616 89.198C72.4035 88.769 71.2447 88.0792 70.257 87.1716L71.3085 85.5679C72.2227 86.3537 73.2495 86.9901 74.3528 87.4547C75.4071 87.8774 76.5299 88.0913 77.6618 88.0848C79.0883 88.0848 80.2281 87.788 81.0811 87.1943C81.4891 86.9216 81.8211 86.545 82.0448 86.1011C82.2684 85.6573 82.3759 85.1615 82.3569 84.6622C82.3736 84.211 82.2542 83.7656 82.015 83.3867C81.7514 83.0147 81.408 82.71 81.0112 82.4962C80.4838 82.2039 79.9248 81.9759 79.3457 81.8169C78.6765 81.6169 77.8971 81.4131 77.0147 81.2056C75.9926 80.949 75.1102 80.6924 74.3601 80.4509C73.7145 80.2396 73.097 79.9468 72.5218 79.5792C72.0552 79.2872 71.6741 78.8713 71.4188 78.3754C71.1592 77.8137 71.0332 77.1968 71.0511 76.5754C71.0347 75.7395 71.2164 74.912 71.5806 74.1641C71.9193 73.4812 72.4091 72.8893 73.0108 72.4358C73.6468 71.9648 74.3605 71.6158 75.1175 71.4056C75.956 71.17 76.8219 71.0532 77.6912 71.0584C78.9586 71.0412 80.2176 71.2717 81.401 71.7377C82.4145 72.1284 83.332 72.7428 84.0886 73.5377L82.9636 74.9339C82.2938 74.227 81.4731 73.6896 80.5664 73.3641C79.6234 73.0137 78.6278 72.8361 77.625 72.8396C77.0534 72.8351 76.4833 72.8997 75.9264 73.032C75.4341 73.147 74.9667 73.3542 74.5476 73.6433C74.1603 73.91 73.8412 74.2686 73.6174 74.6886C73.3819 75.1544 73.2643 75.6734 73.2755 76.198C73.2592 76.6084 73.3413 77.0165 73.5145 77.3867C73.6998 77.7176 73.9709 77.9893 74.2976 78.1716C74.7336 78.4283 75.1976 78.6309 75.6801 78.7754C76.234 78.949 76.9093 79.1289 77.7059 79.315C78.8383 79.5943 79.8384 79.8735 80.6987 80.1528C81.4563 80.3846 82.1826 80.7129 82.8606 81.1301C83.4014 81.4643 83.8515 81.9328 84.1695 82.4924C84.4782 83.0901 84.6314 83.7595 84.6144 84.4358C84.6408 85.2054 84.4842 85.9701 84.1581 86.6638C83.8321 87.3574 83.3463 87.9591 82.743 88.4169C81.4929 89.4056 79.8139 89.8987 77.7059 89.8962Z" fill="#2684FE"/>
<path d="M96.0781 89.8962C94.8795 89.9084 93.6915 89.664 92.59 89.1786C91.4885 88.6933 90.4977 87.9776 89.6807 87.0773C88.8886 86.1985 88.2649 85.1743 87.8424 84.0584C87.3963 82.8902 87.1717 81.6452 87.1806 80.3905C87.1726 79.153 87.3973 77.9256 87.8424 76.7754C88.6993 74.5488 90.3733 72.7562 92.5044 71.783C94.1528 71.02 95.9929 70.8065 97.7657 71.1727C99.5385 71.5389 101.155 72.4663 102.387 73.8245C103.977 75.607 104.853 77.9399 104.84 80.3566C104.84 80.5415 104.84 80.7339 104.84 80.915C104.836 81.0424 104.819 81.169 104.788 81.2924H89.6145C89.7251 83.1156 90.4671 84.8381 91.7065 86.149C92.2798 86.75 92.9617 87.2307 93.714 87.5641C94.4829 87.9025 95.3114 88.0746 96.148 88.0698C96.7343 88.0718 97.3181 87.9918 97.8834 87.832C98.4291 87.6781 98.954 87.455 99.446 87.1679C99.9195 86.8926 100.35 86.5453 100.722 86.1377C101.085 85.752 101.378 85.3036 101.589 84.8132L103.597 85.3716C103.323 86.0494 102.932 86.6707 102.442 87.2056C101.931 87.7621 101.347 88.2434 100.707 88.6358C100.027 89.0516 99.2948 89.3691 98.5305 89.5792C97.7304 89.7964 96.9057 89.903 96.0781 89.8962ZM102.612 79.4886C102.555 78.5636 102.33 77.6575 101.95 76.8169C101.594 76.045 101.11 75.3426 100.52 74.7415C99.9367 74.1569 99.2486 73.6942 98.4937 73.3792C96.9234 72.7251 95.1666 72.7251 93.5964 73.3792C92.841 73.6934 92.1528 74.1561 91.5705 74.7415C90.9742 75.3401 90.4961 76.0512 90.1623 76.8358C89.8048 77.6723 89.5908 78.566 89.5299 79.4773L102.612 79.4886Z" fill="#2684FE"/>
<path d="M112.987 89.8961C112.141 89.9066 111.3 89.7582 110.506 89.4584C109.793 89.1918 109.14 88.7826 108.583 88.2546C108.055 87.7533 107.633 87.1473 107.34 86.4735C107.047 85.8043 106.897 85.0788 106.899 84.3452C106.888 83.5479 107.075 82.7609 107.443 82.0584C107.815 81.356 108.338 80.7496 108.972 80.2848C109.691 79.769 110.493 79.3859 111.34 79.1527C112.333 78.8847 113.358 78.7577 114.384 78.7754C115.296 78.7786 116.207 78.8607 117.105 79.0207C117.95 79.1561 118.778 79.3838 119.576 79.6999V78.0584C119.576 76.4509 119.127 75.1766 118.23 74.2358C117.333 73.2949 116.126 72.8232 114.609 72.8207C113.636 72.8236 112.672 73.013 111.767 73.3792C110.755 73.7998 109.797 74.3446 108.914 75.0018L108.097 73.4282C109.144 72.6938 110.275 72.0955 111.465 71.6471C112.557 71.2507 113.708 71.0503 114.866 71.0546C117.021 71.0546 118.736 71.6949 120.013 72.9754C121.29 74.2559 121.925 76.0244 121.918 78.281V86.4735C121.918 87.1263 122.19 87.4509 122.734 87.4509V89.5452C122.554 89.5716 122.367 89.5867 122.223 89.598C122.08 89.6094 121.929 89.598 121.815 89.598C121.368 89.5999 120.932 89.453 120.572 89.1792C120.386 89.0326 120.233 88.8458 120.124 88.6319C120.015 88.4181 119.954 88.1824 119.944 87.9414L119.877 86.5075C119.087 87.5951 118.038 88.4555 116.829 89.0056C115.627 89.5869 114.316 89.8909 112.987 89.8961ZM113.568 88.081C114.618 88.0746 115.656 87.8419 116.613 87.398C117.555 86.9973 118.38 86.354 119.01 85.5301C119.17 85.3197 119.306 85.0919 119.418 84.8509C119.524 84.6392 119.583 84.4059 119.591 84.1678V81.2018C118.807 80.896 117.999 80.6624 117.175 80.5037C116.367 80.3441 115.546 80.262 114.723 80.2584C113.068 80.2584 111.72 80.6018 110.678 81.2886C110.197 81.5786 109.8 81.9952 109.528 82.4953C109.256 82.9955 109.118 83.5612 109.13 84.1339C109.129 84.6255 109.222 85.1126 109.403 85.5678C109.591 86.0419 109.874 86.4701 110.233 86.8244C110.633 87.2127 111.101 87.5199 111.612 87.7301C112.235 87.9799 112.9 88.0992 113.568 88.081Z" fill="#2684FE"/>
<path d="M135.783 73.4471C134.326 73.4631 132.908 73.9257 131.709 74.7754C130.546 75.6213 129.686 76.8357 129.26 78.232V89.5528H126.929V71.3528H129.135V75.7188C129.708 74.488 130.532 73.3979 131.551 72.5226C132.444 71.713 133.591 71.2603 134.783 71.2471H135.36C135.508 71.2454 135.656 71.2581 135.801 71.2848L135.783 73.4471Z" fill="#2684FE"/>
<path d="M137.724 80.398C137.716 79.157 137.935 77.9255 138.371 76.7679C138.781 75.6589 139.4 74.6435 140.191 73.7792C140.985 72.9227 141.939 72.2399 142.996 71.7716C144.136 71.2736 145.364 71.0243 146.603 71.0395C148.144 71.0011 149.665 71.4063 150.993 72.2094C152.214 72.963 153.195 74.0642 153.817 75.3792L151.57 76.1339C151.09 75.2223 150.372 74.4659 149.497 73.949C148.596 73.421 147.574 73.15 146.537 73.1641C145.662 73.158 144.796 73.3486 144 73.7226C143.23 74.0832 142.536 74.5961 141.96 75.232C141.366 75.8967 140.904 76.6733 140.599 77.5188C139.932 79.3903 139.932 81.4436 140.599 83.315C140.916 84.1843 141.39 84.9844 141.996 85.6735C142.576 86.3296 143.276 86.8629 144.055 87.2433C144.835 87.6278 145.69 87.8253 146.555 87.8207C147.125 87.8196 147.692 87.7371 148.239 87.5754C148.782 87.4185 149.302 87.1902 149.787 86.8962C150.24 86.6263 150.652 86.2907 151.011 85.8999C151.332 85.5621 151.577 85.1564 151.728 84.7112L153.971 85.4094C153.712 86.0727 153.339 86.6825 152.868 87.2094C152.379 87.7685 151.811 88.2504 151.184 88.6395C150.517 89.0559 149.795 89.3735 149.041 89.5829C148.248 89.8064 147.429 89.9182 146.607 89.915C145.412 89.9212 144.229 89.6721 143.134 89.1836C142.038 88.695 141.053 87.9777 140.243 87.0773C139.452 86.1974 138.828 85.1735 138.404 84.0584C137.953 82.8938 137.722 81.6515 137.724 80.398Z" fill="#2684FE"/>
<path d="M172.494 89.5452H170.182V79.3867C170.182 77.3163 169.836 75.7678 169.145 74.7414C168.809 74.2387 168.352 73.8333 167.819 73.5643C167.286 73.2953 166.694 73.1718 166.101 73.2056C165.428 73.2077 164.763 73.3435 164.141 73.6056C162.798 74.1633 161.646 75.1182 160.832 76.349C160.417 76.9758 160.104 77.6679 159.906 78.398V89.5452H157.593V64.0584H159.906V75.4735C160.595 74.1413 161.616 73.0203 162.865 72.2244C164.068 71.4491 165.46 71.0384 166.88 71.0395C167.78 71.0083 168.673 71.2025 169.483 71.6056C170.188 71.9763 170.786 72.5291 171.219 73.2094C171.691 73.9658 172.02 74.8069 172.189 75.6886C172.402 76.7397 172.504 77.8113 172.494 78.8848V89.5452Z" fill="#2684FE"/>
<path d="M183.896 89.8962C183.138 89.8945 182.381 89.8364 181.631 89.7226C180.856 89.6078 180.088 89.444 179.333 89.232C178.603 89.0333 177.888 88.7811 177.193 88.4773C176.559 88.2 175.954 87.8574 175.388 87.4546L177.226 84.2773C179.496 85.7867 181.685 86.5414 183.793 86.5414C184.574 86.5822 185.352 86.4007 186.039 86.0169C186.296 85.8653 186.508 85.6447 186.652 85.3787C186.796 85.1127 186.866 84.8115 186.855 84.5075C186.858 84.1929 186.766 83.885 186.593 83.6258C186.419 83.3665 186.172 83.1684 185.885 83.0584C184.834 82.6136 183.746 82.2688 182.635 82.0282C181.633 81.7952 180.645 81.5042 179.675 81.1565C178.969 80.9116 178.303 80.5578 177.7 80.1075C177.228 79.7543 176.849 79.2861 176.597 78.7452C176.359 78.1721 176.244 77.5531 176.259 76.9301C176.242 76.0801 176.42 75.2378 176.776 74.4706C177.133 73.7033 177.66 73.0324 178.314 72.5112C178.996 71.9695 179.769 71.5615 180.594 71.3075C181.515 71.0214 182.474 70.8802 183.436 70.8886C184.724 70.8911 186.004 71.0973 187.23 71.4999C188.468 71.897 189.652 72.4536 190.753 73.1565L188.881 76.0546C188.001 75.4645 187.053 74.9903 186.058 74.6433C185.2 74.3566 184.305 74.2089 183.403 74.2056C182.687 74.1809 181.977 74.3488 181.344 74.6924C181.075 74.8474 180.853 75.0773 180.706 75.3557C180.558 75.6341 180.49 75.9496 180.509 76.266C180.495 76.5555 180.568 76.8425 180.717 77.0887C180.866 77.3348 181.085 77.5283 181.344 77.6433C182.258 78.053 183.208 78.369 184.182 78.5867C185.455 78.9112 186.536 79.2395 187.433 79.5641C188.215 79.8365 188.957 80.2173 189.639 80.6961C190.171 81.0559 190.606 81.5479 190.903 82.1263C191.171 82.7468 191.297 83.4219 191.271 84.0999C191.285 84.9191 191.11 85.7299 190.761 86.4668C190.412 87.2038 189.899 87.846 189.264 88.3414C188.565 88.8749 187.774 89.2668 186.933 89.4962C185.943 89.7725 184.921 89.9071 183.896 89.8962Z" fill="#2684FE"/>
<path d="M199.036 89.8962C198.212 89.9028 197.393 89.7544 196.621 89.4584C195.901 89.1871 195.241 88.7715 194.679 88.2358C194.122 87.7081 193.679 87.0657 193.38 86.3504C193.081 85.6351 192.933 84.8631 192.944 84.0848C192.937 83.252 193.13 82.4303 193.507 81.6924C193.88 80.949 194.415 80.3035 195.069 79.8056C195.795 79.2642 196.608 78.8568 197.47 78.6018C198.464 78.3011 199.496 78.1536 200.533 78.1641C201.314 78.1624 202.094 78.2318 202.864 78.3716C203.554 78.506 204.229 78.7174 204.875 79.0018V77.9528C204.875 76.7415 204.54 75.8131 203.871 75.1603C203.202 74.5075 202.209 74.183 200.897 74.183C199.944 74.1824 198.998 74.3589 198.106 74.7037C197.118 75.0983 196.181 75.6154 195.316 76.2433L193.918 73.2735C196.107 71.7468 198.692 70.9315 201.338 70.9339C203.899 70.9339 205.89 71.5804 207.309 72.8735C208.728 74.1666 209.436 76.0345 209.434 78.4773V84.1679C209.401 84.5396 209.498 84.9112 209.706 85.2169C209.966 85.4576 210.308 85.5837 210.658 85.5679V89.5452C210.261 89.6345 209.858 89.6988 209.452 89.7377C209.085 89.7754 208.754 89.7905 208.482 89.7905C207.776 89.8183 207.081 89.6032 206.507 89.1792C206.05 88.7853 205.748 88.234 205.658 87.6282L205.555 86.6132C204.798 87.6539 203.808 88.4926 202.669 89.0584C201.535 89.6157 200.293 89.9021 199.036 89.8962ZM200.327 86.4735C201.081 86.479 201.83 86.3369 202.533 86.0547C203.155 85.8204 203.711 85.4314 204.151 84.9226C204.366 84.7762 204.545 84.5796 204.673 84.3488C204.801 84.118 204.874 83.8595 204.886 83.5943V81.515C204.311 81.296 203.72 81.1269 203.117 81.0094C202.512 80.8841 201.897 80.8197 201.279 80.8169C200.256 80.7721 199.245 81.0586 198.389 81.6358C198.046 81.8568 197.763 82.1633 197.566 82.5269C197.369 82.8904 197.266 83.2992 197.264 83.715C197.257 84.0913 197.333 84.4643 197.487 84.8061C197.64 85.1479 197.867 85.4496 198.15 85.6886C198.756 86.2184 199.532 86.4982 200.327 86.4735Z" fill="#2684FE"/>
<path d="M217.817 89.5452L211.25 71.2471H215.945L220.468 85.7414L225.027 71.2471H229.314L222.747 89.5452H217.817Z" fill="#2684FE"/>
<path d="M236.292 89.5452L229.726 71.2471H234.421L238.943 85.7414L243.502 71.2471H247.789L241.226 89.5452H236.292Z" fill="#2684FE"/>
<path d="M250.275 93.115C250.636 93.2229 251.005 93.3049 251.378 93.3603C251.671 93.4031 251.967 93.4271 252.264 93.432C252.533 93.4372 252.8 93.3832 253.047 93.2735C253.309 93.1374 253.535 92.9395 253.709 92.6962C253.971 92.3352 254.188 91.9422 254.356 91.5264C254.624 90.8822 254.857 90.2233 255.054 89.5528L247.995 71.2471H252.69L257.554 85.4962L261.841 71.2471H266.128L258.61 93.1792C258.203 94.4772 257.405 95.6086 256.33 96.4094C255.263 97.1712 253.989 97.5674 252.69 97.5414C251.871 97.5399 251.057 97.4127 250.275 97.1641V93.115Z" fill="#2684FE"/>
<path d="M66.2091 64.9528L61.1316 64.1981L58.8595 59.4735C58.7591 59.2642 58.6036 59.0878 58.4106 58.9645C58.2176 58.8412 57.9948 58.7759 57.7675 58.7759C57.5401 58.7759 57.3174 58.8412 57.1244 58.9645C56.9314 59.0878 56.7759 59.2642 56.6755 59.4735L54.4033 64.1981L49.3221 64.9528C49.0987 64.9874 48.8891 65.0851 48.7168 65.2351C48.5445 65.385 48.4162 65.5812 48.3464 65.8017C48.2765 66.0223 48.2679 66.2584 48.3214 66.4837C48.3749 66.709 48.4884 66.9145 48.6493 67.0773L52.326 70.7565L51.4546 75.9565C51.4189 76.1857 51.4459 76.4206 51.5326 76.6349C51.6194 76.8493 51.7624 77.0347 51.9458 77.1705C52.1292 77.3063 52.3457 77.3871 52.5713 77.404C52.7968 77.4208 53.0225 77.3731 53.2231 77.266L57.7675 74.8132L62.3082 77.266C62.5093 77.3752 62.7362 77.4244 62.9632 77.408C63.1901 77.3916 63.4081 77.3102 63.5922 77.173C63.7764 77.0359 63.9194 76.8485 64.005 76.6321C64.0907 76.4158 64.1155 76.1791 64.0767 75.949L63.2126 70.7641L66.8893 67.0848C67.0525 66.9218 67.1678 66.7151 67.2222 66.4882C67.2766 66.2612 67.2679 66.0232 67.1971 65.8011C67.1262 65.579 66.9961 65.3818 66.8214 65.2318C66.6468 65.0818 66.4346 64.9852 66.2091 64.9528Z" fill="#2684FE"/>
<path d="M57.7674 72.0547L54.315 73.9188L54.9731 69.9716L52.1788 67.1792L56.0393 66.6018L57.7674 63.0132L59.4917 66.6018L63.3523 67.1792L60.5617 69.9716L61.2198 73.9188L57.7674 72.0547Z" fill="#F8CF40"/>
<path d="M24.4603 103.987C24.2942 103.985 24.1292 103.957 23.9713 103.904C23.6644 103.797 23.3981 103.593 23.21 103.323C23.022 103.052 22.9217 102.727 22.9235 102.394V69.9075H47.1896C47.4821 69.9075 47.7627 70.0267 47.9695 70.239C48.1764 70.4514 48.2926 70.7393 48.2926 71.0395C48.2926 71.3398 48.1764 71.6277 47.9695 71.84C47.7627 72.0523 47.4821 72.1716 47.1896 72.1716H25.1295V100.307L32.5858 89.832H56.543V79.7112C56.543 79.411 56.6593 79.1231 56.8661 78.9107C57.073 78.6984 57.3535 78.5792 57.6461 78.5792C57.9386 78.5792 58.2191 78.6984 58.426 78.9107C58.6329 79.1231 58.7491 79.411 58.7491 79.7112V92.0962H33.7035L25.7031 103.345C25.5583 103.543 25.3707 103.704 25.1551 103.816C24.9395 103.927 24.7017 103.986 24.4603 103.987Z" fill="#2684FE"/>
<rect x="26.1835" y="19.6997" width="236.685" height="32.0762" rx="10" fill="#EEF3FB"/>
<path d="M40.5833 32.5719C40.6433 31.3719 41.0633 30.4479 41.8433 29.7999C42.6353 29.1399 43.6733 28.8099 44.9573 28.8099C45.8333 28.8099 46.5833 28.9659 47.2073 29.2779C47.8313 29.5779 48.2993 29.9919 48.6113 30.5199C48.9353 31.0359 49.0973 31.6239 49.0973 32.2839C49.0973 33.0399 48.8993 33.6819 48.5033 34.2099C48.1193 34.7259 47.6573 35.0739 47.1173 35.2539V35.3259C47.8133 35.5419 48.3533 35.9259 48.7373 36.4779C49.1333 37.0299 49.3313 37.7379 49.3313 38.6019C49.3313 39.3219 49.1633 39.9639 48.8273 40.5279C48.5033 41.0919 48.0173 41.5359 47.3693 41.8599C46.7333 42.1719 45.9653 42.3279 45.0653 42.3279C43.7093 42.3279 42.6053 41.9859 41.7533 41.3019C40.9013 40.6179 40.4513 39.6099 40.4033 38.2779H42.8513C42.8753 38.8659 43.0733 39.3399 43.4453 39.6999C43.8293 40.0479 44.3513 40.2219 45.0113 40.2219C45.6233 40.2219 46.0913 40.0539 46.4153 39.7179C46.7513 39.3699 46.9193 38.9259 46.9193 38.3859C46.9193 37.6659 46.6913 37.1499 46.2353 36.8379C45.7793 36.5259 45.0713 36.3699 44.1113 36.3699H43.5893V34.2999H44.1113C45.8153 34.2999 46.6673 33.7299 46.6673 32.5899C46.6673 32.0739 46.5113 31.6719 46.1993 31.3839C45.8993 31.0959 45.4613 30.9519 44.8853 30.9519C44.3213 30.9519 43.8833 31.1079 43.5713 31.4199C43.2713 31.7199 43.0973 32.1039 43.0493 32.5719H40.5833ZM58.1267 32.3919C58.0067 31.8879 57.7967 31.5099 57.4967 31.2579C57.2087 31.0059 56.7887 30.8799 56.2367 30.8799C55.4087 30.8799 54.7967 31.2159 54.4007 31.8879C54.0167 32.5479 53.8187 33.6279 53.8067 35.1279C54.0947 34.6479 54.5147 34.2759 55.0667 34.0119C55.6187 33.7359 56.2187 33.5979 56.8667 33.5979C57.6467 33.5979 58.3367 33.7659 58.9367 34.1019C59.5367 34.4379 60.0047 34.9299 60.3407 35.5779C60.6767 36.2139 60.8447 36.9819 60.8447 37.8819C60.8447 38.7339 60.6707 39.4959 60.3227 40.1679C59.9867 40.8279 59.4887 41.3439 58.8287 41.7159C58.1687 42.0879 57.3827 42.2739 56.4707 42.2739C55.2227 42.2739 54.2387 41.9979 53.5187 41.4459C52.8107 40.8939 52.3127 40.1259 52.0247 39.1419C51.7487 38.1459 51.6107 36.9219 51.6107 35.4699C51.6107 33.2739 51.9887 31.6179 52.7447 30.5019C53.5007 29.3739 54.6947 28.8099 56.3267 28.8099C57.5867 28.8099 58.5647 29.1519 59.2607 29.8359C59.9567 30.5199 60.3587 31.3719 60.4667 32.3919H58.1267ZM56.2907 35.6679C55.6547 35.6679 55.1207 35.8539 54.6887 36.2259C54.2567 36.5979 54.0407 37.1379 54.0407 37.8459C54.0407 38.5539 54.2387 39.1119 54.6347 39.5199C55.0427 39.9279 55.6127 40.1319 56.3447 40.1319C56.9927 40.1319 57.5027 39.9339 57.8747 39.5379C58.2587 39.1419 58.4507 38.6079 58.4507 37.9359C58.4507 37.2399 58.2647 36.6879 57.8927 36.2799C57.5327 35.8719 56.9987 35.6679 56.2907 35.6679ZM62.8363 35.5059C62.8363 33.4299 63.2083 31.8039 63.9523 30.6279C64.7083 29.4519 65.9563 28.8639 67.6963 28.8639C69.4363 28.8639 70.6783 29.4519 71.4223 30.6279C72.1783 31.8039 72.5563 33.4299 72.5563 35.5059C72.5563 37.5939 72.1783 39.2319 71.4223 40.4199C70.6783 41.6079 69.4363 42.2019 67.6963 42.2019C65.9563 42.2019 64.7083 41.6079 63.9523 40.4199C63.2083 39.2319 62.8363 37.5939 62.8363 35.5059ZM70.0723 35.5059C70.0723 34.6179 70.0123 33.8739 69.8923 33.2739C69.7843 32.6619 69.5563 32.1639 69.2083 31.7799C68.8723 31.3959 68.3683 31.2039 67.6963 31.2039C67.0243 31.2039 66.5143 31.3959 66.1663 31.7799C65.8303 32.1639 65.6023 32.6619 65.4823 33.2739C65.3743 33.8739 65.3203 34.6179 65.3203 35.5059C65.3203 36.4179 65.3743 37.1859 65.4823 37.8099C65.5903 38.4219 65.8183 38.9199 66.1663 39.3039C66.5143 39.6759 67.0243 39.8619 67.6963 39.8619C68.3683 39.8619 68.8783 39.6759 69.2263 39.3039C69.5743 38.9199 69.8023 38.4219 69.9103 37.8099C70.0183 37.1859 70.0723 36.4179 70.0723 35.5059ZM85.5301 42.2379L82.7581 37.3419H81.5701V42.2379H79.0501V29.6739H83.7661C84.7381 29.6739 85.5661 29.8479 86.2501 30.1959C86.9341 30.5319 87.4441 30.9939 87.7801 31.5819C88.1281 32.1579 88.3021 32.8059 88.3021 33.5259C88.3021 34.3539 88.0621 35.1039 87.5821 35.7759C87.1021 36.4359 86.3881 36.8919 85.4401 37.1439L88.4461 42.2379H85.5301ZM81.5701 35.4519H83.6761C84.3601 35.4519 84.8701 35.2899 85.2061 34.9659C85.5421 34.6299 85.7101 34.1679 85.7101 33.5799C85.7101 33.0039 85.5421 32.5599 85.2061 32.2479C84.8701 31.9239 84.3601 31.7619 83.6761 31.7619H81.5701V35.4519ZM99.8514 37.0359C99.8514 37.3959 99.8274 37.7199 99.7794 38.0079H92.4894C92.5494 38.7279 92.8014 39.2919 93.2454 39.6999C93.6894 40.1079 94.2354 40.3119 94.8834 40.3119C95.8194 40.3119 96.4854 39.9099 96.8814 39.1059H99.5994C99.3114 40.0659 98.7594 40.8579 97.9434 41.4819C97.1274 42.0939 96.1254 42.3999 94.9374 42.3999C93.9774 42.3999 93.1134 42.1899 92.3454 41.7699C91.5894 41.3379 90.9954 40.7319 90.5634 39.9519C90.1434 39.1719 89.9334 38.2719 89.9334 37.2519C89.9334 36.2199 90.1434 35.3139 90.5634 34.5339C90.9834 33.7539 91.5714 33.1539 92.3274 32.7339C93.0834 32.3139 93.9534 32.1039 94.9374 32.1039C95.8854 32.1039 96.7314 32.3079 97.4754 32.7159C98.2314 33.1239 98.8134 33.7059 99.2214 34.4619C99.6414 35.2059 99.8514 36.0639 99.8514 37.0359ZM97.2414 36.3159C97.2294 35.6679 96.9954 35.1519 96.5394 34.7679C96.0834 34.3719 95.5254 34.1739 94.8654 34.1739C94.2414 34.1739 93.7134 34.3659 93.2814 34.7499C92.8614 35.1219 92.6034 35.6439 92.5074 36.3159H97.2414ZM101.043 37.2519C101.043 36.2199 101.253 35.3199 101.673 34.5519C102.093 33.7719 102.675 33.1719 103.419 32.7519C104.163 32.3199 105.015 32.1039 105.975 32.1039C107.211 32.1039 108.231 32.4159 109.035 33.0399C109.851 33.6519 110.397 34.5159 110.673 35.6319H107.955C107.811 35.1999 107.565 34.8639 107.217 34.6239C106.881 34.3719 106.461 34.2459 105.957 34.2459C105.237 34.2459 104.667 34.5099 104.247 35.0379C103.827 35.5539 103.617 36.2919 103.617 37.2519C103.617 38.1999 103.827 38.9379 104.247 39.4659C104.667 39.9819 105.237 40.2399 105.957 40.2399C106.977 40.2399 107.643 39.7839 107.955 38.8719H110.673C110.397 39.9519 109.851 40.8099 109.035 41.4459C108.219 42.0819 107.199 42.3999 105.975 42.3999C105.015 42.3999 104.163 42.1899 103.419 41.7699C102.675 41.3379 102.093 40.7379 101.673 39.9699C101.253 39.1899 101.043 38.2839 101.043 37.2519ZM115.039 33.8139C115.363 33.2859 115.783 32.8719 116.299 32.5719C116.827 32.2719 117.427 32.1219 118.099 32.1219V34.7679H117.433C116.641 34.7679 116.041 34.9539 115.633 35.3259C115.237 35.6979 115.039 36.3459 115.039 37.2699V42.2379H112.519V32.2659H115.039V33.8139ZM129.21 32.2659V42.2379H126.672V40.9779C126.348 41.4099 125.922 41.7519 125.394 42.0039C124.878 42.2439 124.314 42.3639 123.702 42.3639C122.922 42.3639 122.232 42.2019 121.632 41.8779C121.032 41.5419 120.558 41.0559 120.21 40.4199C119.874 39.7719 119.706 39.0039 119.706 38.1159V32.2659H122.226V37.7559C122.226 38.5479 122.424 39.1599 122.82 39.5919C123.216 40.0119 123.756 40.2219 124.44 40.2219C125.136 40.2219 125.682 40.0119 126.078 39.5919C126.474 39.1599 126.672 38.5479 126.672 37.7559V32.2659H129.21ZM132.975 31.0779C132.531 31.0779 132.159 30.9399 131.859 30.6639C131.571 30.3759 131.427 30.0219 131.427 29.6019C131.427 29.1819 131.571 28.8339 131.859 28.5579C132.159 28.2699 132.531 28.1259 132.975 28.1259C133.419 28.1259 133.785 28.2699 134.073 28.5579C134.373 28.8339 134.523 29.1819 134.523 29.6019C134.523 30.0219 134.373 30.3759 134.073 30.6639C133.785 30.9399 133.419 31.0779 132.975 31.0779ZM134.217 32.2659V42.2379H131.697V32.2659H134.217ZM139.64 34.3359V39.1599C139.64 39.4959 139.718 39.7419 139.874 39.8979C140.042 40.0419 140.318 40.1139 140.702 40.1139H141.872V42.2379H140.288C138.164 42.2379 137.102 41.2059 137.102 39.1419V34.3359H135.914V32.2659H137.102V29.7999H139.64V32.2659H141.872V34.3359H139.64ZM152.955 37.0359C152.955 37.3959 152.931 37.7199 152.883 38.0079H145.593C145.653 38.7279 145.905 39.2919 146.349 39.6999C146.793 40.1079 147.339 40.3119 147.987 40.3119C148.923 40.3119 149.589 39.9099 149.985 39.1059H152.703C152.415 40.0659 151.863 40.8579 151.047 41.4819C150.231 42.0939 149.229 42.3999 148.041 42.3999C147.081 42.3999 146.217 42.1899 145.449 41.7699C144.693 41.3379 144.099 40.7319 143.667 39.9519C143.247 39.1719 143.037 38.2719 143.037 37.2519C143.037 36.2199 143.247 35.3139 143.667 34.5339C144.087 33.7539 144.675 33.1539 145.431 32.7339C146.187 32.3139 147.057 32.1039 148.041 32.1039C148.989 32.1039 149.835 32.3079 150.579 32.7159C151.335 33.1239 151.917 33.7059 152.325 34.4619C152.745 35.2059 152.955 36.0639 152.955 37.0359ZM150.345 36.3159C150.333 35.6679 150.099 35.1519 149.643 34.7679C149.187 34.3719 148.629 34.1739 147.969 34.1739C147.345 34.1739 146.817 34.3659 146.385 34.7499C145.965 35.1219 145.707 35.6439 145.611 36.3159H150.345ZM157.314 33.8139C157.638 33.2859 158.058 32.8719 158.574 32.5719C159.102 32.2719 159.702 32.1219 160.374 32.1219V34.7679H159.708C158.916 34.7679 158.316 34.9539 157.908 35.3259C157.512 35.6979 157.314 36.3459 157.314 37.2699V42.2379H154.794V32.2659H157.314V33.8139ZM165.888 42.3999C165.072 42.3999 164.34 42.2559 163.692 41.9679C163.044 41.6679 162.528 41.2659 162.144 40.7619C161.772 40.2579 161.568 39.6999 161.532 39.0879H164.07C164.118 39.4719 164.304 39.7899 164.628 40.0419C164.964 40.2939 165.378 40.4199 165.87 40.4199C166.35 40.4199 166.722 40.3239 166.986 40.1319C167.262 39.9399 167.4 39.6939 167.4 39.3939C167.4 39.0699 167.232 38.8299 166.896 38.6739C166.572 38.5059 166.05 38.3259 165.33 38.1339C164.586 37.9539 163.974 37.7679 163.494 37.5759C163.026 37.3839 162.618 37.0899 162.27 36.6939C161.934 36.2979 161.766 35.7639 161.766 35.0919C161.766 34.5399 161.922 34.0359 162.234 33.5799C162.558 33.1239 163.014 32.7639 163.602 32.4999C164.202 32.2359 164.904 32.1039 165.708 32.1039C166.896 32.1039 167.844 32.4039 168.552 33.0039C169.26 33.5919 169.65 34.3899 169.722 35.3979H167.31C167.274 35.0019 167.106 34.6899 166.806 34.4619C166.518 34.2219 166.128 34.1019 165.636 34.1019C165.18 34.1019 164.826 34.1859 164.574 34.3539C164.334 34.5219 164.214 34.7559 164.214 35.0559C164.214 35.3919 164.382 35.6499 164.718 35.8299C165.054 35.9979 165.576 36.1719 166.284 36.3519C167.004 36.5319 167.598 36.7179 168.066 36.9099C168.534 37.1019 168.936 37.4019 169.272 37.8099C169.62 38.2059 169.8 38.7339 169.812 39.3939C169.812 39.9699 169.65 40.4859 169.326 40.9419C169.014 41.3979 168.558 41.7579 167.958 42.0219C167.37 42.2739 166.68 42.3999 165.888 42.3999ZM182.649 42.2379L179.877 37.3419H178.689V42.2379H176.169V29.6739H180.885C181.857 29.6739 182.685 29.8479 183.369 30.1959C184.053 30.5319 184.563 30.9939 184.899 31.5819C185.247 32.1579 185.421 32.8059 185.421 33.5259C185.421 34.3539 185.181 35.1039 184.701 35.7759C184.221 36.4359 183.507 36.8919 182.559 37.1439L185.565 42.2379H182.649ZM178.689 35.4519H180.795C181.479 35.4519 181.989 35.2899 182.325 34.9659C182.661 34.6299 182.829 34.1679 182.829 33.5799C182.829 33.0039 182.661 32.5599 182.325 32.2479C181.989 31.9239 181.479 31.7619 180.795 31.7619H178.689V35.4519ZM196.97 37.0359C196.97 37.3959 196.946 37.7199 196.898 38.0079H189.608C189.668 38.7279 189.92 39.2919 190.364 39.6999C190.808 40.1079 191.354 40.3119 192.002 40.3119C192.938 40.3119 193.604 39.9099 194 39.1059H196.718C196.43 40.0659 195.878 40.8579 195.062 41.4819C194.246 42.0939 193.244 42.3999 192.056 42.3999C191.096 42.3999 190.232 42.1899 189.464 41.7699C188.708 41.3379 188.114 40.7319 187.682 39.9519C187.262 39.1719 187.052 38.2719 187.052 37.2519C187.052 36.2199 187.262 35.3139 187.682 34.5339C188.102 33.7539 188.69 33.1539 189.446 32.7339C190.202 32.3139 191.072 32.1039 192.056 32.1039C193.004 32.1039 193.85 32.3079 194.594 32.7159C195.35 33.1239 195.932 33.7059 196.34 34.4619C196.76 35.2059 196.97 36.0639 196.97 37.0359ZM194.36 36.3159C194.348 35.6679 194.114 35.1519 193.658 34.7679C193.202 34.3719 192.644 34.1739 191.984 34.1739C191.36 34.1739 190.832 34.3659 190.4 34.7499C189.98 35.1219 189.722 35.6439 189.626 36.3159H194.36ZM202.968 39.9159L205.488 32.2659H208.17L204.48 42.2379H201.42L197.748 32.2659H200.448L202.968 39.9159ZM210.863 31.0779C210.419 31.0779 210.047 30.9399 209.747 30.6639C209.459 30.3759 209.315 30.0219 209.315 29.6019C209.315 29.1819 209.459 28.8339 209.747 28.5579C210.047 28.2699 210.419 28.1259 210.863 28.1259C211.307 28.1259 211.673 28.2699 211.961 28.5579C212.261 28.8339 212.411 29.1819 212.411 29.6019C212.411 30.0219 212.261 30.3759 211.961 30.6639C211.673 30.9399 211.307 31.0779 210.863 31.0779ZM212.105 32.2659V42.2379H209.585V32.2659H212.105ZM223.865 37.0359C223.865 37.3959 223.841 37.7199 223.793 38.0079H216.503C216.563 38.7279 216.815 39.2919 217.259 39.6999C217.703 40.1079 218.249 40.3119 218.897 40.3119C219.833 40.3119 220.499 39.9099 220.895 39.1059H223.613C223.325 40.0659 222.773 40.8579 221.957 41.4819C221.141 42.0939 220.139 42.3999 218.951 42.3999C217.991 42.3999 217.127 42.1899 216.359 41.7699C215.603 41.3379 215.009 40.7319 214.577 39.9519C214.157 39.1719 213.947 38.2719 213.947 37.2519C213.947 36.2199 214.157 35.3139 214.577 34.5339C214.997 33.7539 215.585 33.1539 216.341 32.7339C217.097 32.3139 217.967 32.1039 218.951 32.1039C219.899 32.1039 220.745 32.3079 221.489 32.7159C222.245 33.1239 222.827 33.7059 223.235 34.4619C223.655 35.2059 223.865 36.0639 223.865 37.0359ZM221.255 36.3159C221.243 35.6679 221.009 35.1519 220.553 34.7679C220.097 34.3719 219.539 34.1739 218.879 34.1739C218.255 34.1739 217.727 34.3659 217.295 34.7499C216.875 35.1219 216.617 35.6439 216.521 36.3159H221.255ZM239.528 32.2659L236.612 42.2379H233.894L232.076 35.2719L230.258 42.2379H227.522L224.588 32.2659H227.144L228.908 39.8619L230.816 32.2659H233.48L235.352 39.8439L237.116 32.2659H239.528ZM244.708 42.3999C243.892 42.3999 243.16 42.2559 242.512 41.9679C241.864 41.6679 241.348 41.2659 240.964 40.7619C240.592 40.2579 240.388 39.6999 240.352 39.0879H242.89C242.938 39.4719 243.124 39.7899 243.448 40.0419C243.784 40.2939 244.198 40.4199 244.69 40.4199C245.17 40.4199 245.542 40.3239 245.806 40.1319C246.082 39.9399 246.22 39.6939 246.22 39.3939C246.22 39.0699 246.052 38.8299 245.716 38.6739C245.392 38.5059 244.87 38.3259 244.15 38.1339C243.406 37.9539 242.794 37.7679 242.314 37.5759C241.846 37.3839 241.438 37.0899 241.09 36.6939C240.754 36.2979 240.586 35.7639 240.586 35.0919C240.586 34.5399 240.742 34.0359 241.054 33.5799C241.378 33.1239 241.834 32.7639 242.422 32.4999C243.022 32.2359 243.724 32.1039 244.528 32.1039C245.716 32.1039 246.664 32.4039 247.372 33.0039C248.08 33.5919 248.47 34.3899 248.542 35.3979H246.13C246.094 35.0019 245.926 34.6899 245.626 34.4619C245.338 34.2219 244.948 34.1019 244.456 34.1019C244 34.1019 243.646 34.1859 243.394 34.3539C243.154 34.5219 243.034 34.7559 243.034 35.0559C243.034 35.3919 243.202 35.6499 243.538 35.8299C243.874 35.9979 244.396 36.1719 245.104 36.3519C245.824 36.5319 246.418 36.7179 246.886 36.9099C247.354 37.1019 247.756 37.4019 248.092 37.8099C248.44 38.2059 248.62 38.7339 248.632 39.3939C248.632 39.9699 248.47 40.4859 248.146 40.9419C247.834 41.3979 247.378 41.7579 246.778 42.0219C246.19 42.2739 245.5 42.3999 244.708 42.3999Z" fill="#2684FE"/>
<defs>
<linearGradient id="paint0_linear" x1="196.101" y1="118.549" x2="218.643" y2="118.889" gradientUnits="userSpaceOnUse">
<stop offset="0.677083" stop-color="#F8CF40"/>
<stop offset="0.677183" stop-color="#E0E7EA"/>
<stop offset="1" stop-color="#E0E7EA"/>
</linearGradient>
<clipPath id="clip0">
<rect width="24.5455" height="24.5455" fill="white" transform="translate(68.6426 103.868)"/>
</clipPath>
<clipPath id="clip1">
<rect width="24.5455" height="24.5455" fill="white" transform="translate(100.006 103.868)"/>
</clipPath>
<clipPath id="clip2">
<rect width="24.5455" height="24.5455" fill="white" transform="translate(131.37 103.868)"/>
</clipPath>
<clipPath id="clip3">
<rect width="24.5455" height="24.5455" fill="white" transform="translate(162.734 103.868)"/>
</clipPath>
<clipPath id="clip4">
<rect width="24.5455" height="24.5455" fill="white" transform="translate(194.097 104.404)"/>
</clipPath>
</defs>
</svg>