<svg width="36" height="37" viewBox="0 0 36 37" fill="none" xmlns="http://www.w3.org/2000/svg">
<g opacity="1">
<path d="M16.5 27.1852H19.5V24.1852H16.5V27.1852ZM18 3.18524C9.72 3.18524 3 9.90524 3 18.1852C3 26.4652 9.72 33.1852 18 33.1852C26.28 33.1852 33 26.4652 33 18.1852C33 9.90524 26.28 3.18524 18 3.18524ZM18 30.1852C11.385 30.1852 6 24.8002 6 18.1852C6 11.5702 11.385 6.18524 18 6.18524C24.615 6.18524 30 11.5702 30 18.1852C30 24.8002 24.615 30.1852 18 30.1852ZM18 9.18524C14.685 9.18524 12 11.8702 12 15.1852H15C15 13.5352 16.35 12.1852 18 12.1852C19.65 12.1852 21 13.5352 21 15.1852C21 18.1852 16.5 17.8102 16.5 22.6852H19.5C19.5 19.3102 24 18.9352 24 15.1852C24 11.8702 21.315 9.18524 18 9.18524Z" fill="#2684FE"/>
</g>
</svg>