<svg width="36" height="37" viewBox="0 0 36 37" fill="none" xmlns="http://www.w3.org/2000/svg">
<path d="M29.145 20.4013C29.205 19.9213 29.25 19.4413 29.25 18.9313C29.25 18.4213 29.205 17.9413 29.145 17.4613L32.31 14.9863C32.595 14.7613 32.67 14.3563 32.49 14.0263L29.49 8.83628C29.355 8.59628 29.1 8.46128 28.83 8.46128C28.74 8.46128 28.65 8.47628 28.575 8.50628L24.84 10.0063C24.06 9.40628 23.22 8.91128 22.305 8.53628L21.735 4.56127C21.69 4.20127 21.375 3.93127 21 3.93127H15C14.625 3.93127 14.31 4.20127 14.265 4.56127L13.695 8.53628C12.78 8.91128 11.94 9.42128 11.16 10.0063L7.425 8.50628C7.335 8.47628 7.245 8.46128 7.155 8.46128C6.9 8.46128 6.645 8.59628 6.51 8.83628L3.51 14.0263C3.315 14.3563 3.405 14.7613 3.69 14.9863L6.855 17.4613C6.795 17.9413 6.75 18.4363 6.75 18.9313C6.75 19.4263 6.795 19.9213 6.855 20.4013L3.69 22.8763C3.405 23.1013 3.33 23.5063 3.51 23.8363L6.51 29.0263C6.645 29.2663 6.9 29.4013 7.17 29.4013C7.26 29.4013 7.35 29.3863 7.425 29.3563L11.16 27.8563C11.94 28.4563 12.78 28.9513 13.695 29.3263L14.265 33.3013C14.31 33.6613 14.625 33.9313 15 33.9313H21C21.375 33.9313 21.69 33.6613 21.735 33.3013L22.305 29.3263C23.22 28.9513 24.06 28.4413 24.84 27.8563L28.575 29.3563C28.665 29.3863 28.755 29.4013 28.845 29.4013C29.1 29.4013 29.355 29.2663 29.49 29.0263L32.49 23.8363C32.67 23.5063 32.595 23.1013 32.31 22.8763L29.145 20.4013ZM26.175 17.8363C26.235 18.3013 26.25 18.6163 26.25 18.9313C26.25 19.2463 26.22 19.5763 26.175 20.0263L25.965 21.7213L27.3 22.7713L28.92 24.0313L27.87 25.8463L25.965 25.0813L24.405 24.4513L23.055 25.4713C22.41 25.9513 21.795 26.3113 21.18 26.5663L19.59 27.2113L19.35 28.9063L19.05 30.9313H16.95L16.665 28.9063L16.425 27.2113L14.835 26.5663C14.19 26.2963 13.59 25.9513 12.99 25.5013L11.625 24.4513L10.035 25.0963L8.13 25.8613L7.08 24.0463L8.7 22.7863L10.035 21.7363L9.825 20.0413C9.78 19.5763 9.75 19.2313 9.75 18.9313C9.75 18.6313 9.78 18.2863 9.825 17.8363L10.035 16.1413L8.7 15.0913L7.08 13.8313L8.13 12.0163L10.035 12.7813L11.595 13.4113L12.945 12.3913C13.59 11.9113 14.205 11.5513 14.82 11.2963L16.41 10.6513L16.65 8.95627L16.95 6.93127H19.035L19.32 8.95627L19.56 10.6513L21.15 11.2963C21.795 11.5663 22.395 11.9113 22.995 12.3613L24.36 13.4113L25.95 12.7663L27.855 12.0013L28.905 13.8163L27.3 15.0913L25.965 16.1413L26.175 17.8363ZM18 12.9313C14.685 12.9313 12 15.6163 12 18.9313C12 22.2463 14.685 24.9313 18 24.9313C21.315 24.9313 24 22.2463 24 18.9313C24 15.6163 21.315 12.9313 18 12.9313ZM18 21.9313C16.35 21.9313 15 20.5813 15 18.9313C15 17.2813 16.35 15.9313 18 15.9313C19.65 15.9313 21 17.2813 21 18.9313C21 20.5813 19.65 21.9313 18 21.9313Z" fill="#2684FE"/>
</svg>