<svg width="36" height="36" viewBox="0 0 36 36" fill="none" xmlns="http://www.w3.org/2000/svg">
<rect x="7.39111" y="9.59622" width="12.4403" height="7.01881" fill="#2684FE"/>
<rect x="7.39111" y="18.8939" width="5.70474" height="2.68851" fill="#2684FE"/>
<rect x="15.2927" y="18.8939" width="4.53878" height="2.68851" fill="#2684FE"/>
<rect x="22.4297" y="9.59622" width="6.17927" height="3.01553" fill="#2684FE"/>
<rect x="22.4297" y="15.1731" width="6.17927" height="6.40932" fill="#2684FE"/>
<path fill-rule="evenodd" clip-rule="evenodd" d="M4.5 3.5H31.5C33.15 3.5 34.5 4.835 34.5 6.5L34.485 24.5C34.485 26.15 33.15 27.5 31.5 27.5H21V30.5H26.7338V33.0474H9.26624V30.5H15V27.5H4.5C2.835 27.5 1.5 26.15 1.5 24.5V6.5C1.5 4.835 2.835 3.5 4.5 3.5ZM4.5 24.5H31.5V6.5H4.5V24.5Z" fill="#2684FE"/>
</svg>