<svg width="37" height="37" viewBox="0 0 37 37" fill="none" xmlns="http://www.w3.org/2000/svg">
<path d="M14.3325 21.5353C10.8225 21.5353 3.83252 23.2903 3.83252 26.7853V29.4103H24.8325V26.7853C24.8325 23.2903 17.8425 21.5353 14.3325 21.5353ZM7.34252 26.4103C8.60252 25.5403 11.6475 24.5353 14.3325 24.5353C17.0175 24.5353 20.0625 25.5403 21.3225 26.4103H7.34252ZM14.3325 18.9103C17.2275 18.9103 19.5825 16.5553 19.5825 13.6603C19.5825 10.7653 17.2275 8.41028 14.3325 8.41028C11.4375 8.41028 9.08252 10.7653 9.08252 13.6603C9.08252 16.5553 11.4375 18.9103 14.3325 18.9103ZM14.3325 11.4103C15.5775 11.4103 16.5825 12.4153 16.5825 13.6603C16.5825 14.9053 15.5775 15.9103 14.3325 15.9103C13.0875 15.9103 12.0825 14.9053 12.0825 13.6603C12.0825 12.4153 13.0875 11.4103 14.3325 11.4103ZM24.8925 21.6253C26.6325 22.8853 27.8325 24.5653 27.8325 26.7853V29.4103H33.8325V26.7853C33.8325 23.7553 28.5825 22.0303 24.8925 21.6253ZM23.3325 18.9103C26.2275 18.9103 28.5825 16.5553 28.5825 13.6603C28.5825 10.7653 26.2275 8.41028 23.3325 8.41028C22.5225 8.41028 21.7725 8.60528 21.0825 8.93528C22.0275 10.2703 22.5825 11.9053 22.5825 13.6603C22.5825 15.4153 22.0275 17.0503 21.0825 18.3853C21.7725 18.7153 22.5225 18.9103 23.3325 18.9103Z" fill="#2684FE"/>
</svg>