<svg width="238" height="42" viewBox="0 0 238 42" fill="none" xmlns="http://www.w3.org/2000/svg">
<path d="M57.9277 18.4674C58.0111 16.8008 58.5944 15.5174 59.6777 14.6174C60.7777 13.7008 62.2194 13.2424 64.0027 13.2424C65.2194 13.2424 66.2611 13.4591 67.1277 13.8924C67.9944 14.3091 68.6444 14.8841 69.0777 15.6174C69.5277 16.3341 69.7527 17.1508 69.7527 18.0674C69.7527 19.1174 69.4777 20.0091 68.9277 20.7424C68.3944 21.4591 67.7527 21.9424 67.0027 22.1924V22.2924C67.9694 22.5924 68.7194 23.1258 69.2527 23.8924C69.8027 24.6591 70.0777 25.6424 70.0777 26.8424C70.0777 27.8424 69.8444 28.7341 69.3777 29.5174C68.9277 30.3008 68.2527 30.9174 67.3527 31.3674C66.4694 31.8008 65.4027 32.0174 64.1527 32.0174C62.2694 32.0174 60.7361 31.5424 59.5527 30.5924C58.3694 29.6424 57.7444 28.2424 57.6777 26.3924H61.0777C61.1111 27.2091 61.3861 27.8674 61.9027 28.3674C62.4361 28.8508 63.1611 29.0924 64.0777 29.0924C64.9277 29.0924 65.5777 28.8591 66.0277 28.3924C66.4944 27.9091 66.7277 27.2924 66.7277 26.5424C66.7277 25.5424 66.4111 24.8258 65.7777 24.3924C65.1444 23.9591 64.1611 23.7424 62.8277 23.7424H62.1027V20.8674H62.8277C65.1944 20.8674 66.3777 20.0758 66.3777 18.4924C66.3777 17.7758 66.1611 17.2174 65.7277 16.8174C65.3111 16.4174 64.7027 16.2174 63.9027 16.2174C63.1194 16.2174 62.5111 16.4341 62.0777 16.8674C61.6611 17.2841 61.4194 17.8174 61.3527 18.4674H57.9277ZM82.2936 18.2174C82.1269 17.5174 81.8352 16.9924 81.4186 16.6424C81.0186 16.2924 80.4352 16.1174 79.6686 16.1174C78.5186 16.1174 77.6686 16.5841 77.1186 17.5174C76.5852 18.4341 76.3102 19.9341 76.2936 22.0174C76.6936 21.3508 77.2769 20.8341 78.0436 20.4674C78.8102 20.0841 79.6436 19.8924 80.5436 19.8924C81.6269 19.8924 82.5852 20.1258 83.4186 20.5924C84.2519 21.0591 84.9019 21.7424 85.3686 22.6424C85.8352 23.5258 86.0686 24.5924 86.0686 25.8424C86.0686 27.0258 85.8269 28.0841 85.3436 29.0174C84.8769 29.9341 84.1852 30.6508 83.2686 31.1674C82.3519 31.6841 81.2602 31.9424 79.9936 31.9424C78.2602 31.9424 76.8936 31.5591 75.8936 30.7924C74.9102 30.0258 74.2186 28.9591 73.8186 27.5924C73.4352 26.2091 73.2436 24.5091 73.2436 22.4924C73.2436 19.4424 73.7686 17.1424 74.8186 15.5924C75.8686 14.0258 77.5269 13.2424 79.7936 13.2424C81.5436 13.2424 82.9019 13.7174 83.8686 14.6674C84.8352 15.6174 85.3936 16.8008 85.5436 18.2174H82.2936ZM79.7436 22.7674C78.8602 22.7674 78.1186 23.0258 77.5186 23.5424C76.9186 24.0591 76.6186 24.8091 76.6186 25.7924C76.6186 26.7758 76.8936 27.5508 77.4436 28.1174C78.0102 28.6841 78.8019 28.9674 79.8186 28.9674C80.7186 28.9674 81.4269 28.6924 81.9436 28.1424C82.4769 27.5924 82.7436 26.8508 82.7436 25.9174C82.7436 24.9508 82.4852 24.1841 81.9686 23.6174C81.4686 23.0508 80.7269 22.7674 79.7436 22.7674ZM88.8348 22.5424C88.8348 19.6591 89.3514 17.4008 90.3848 15.7674C91.4348 14.1341 93.1681 13.3174 95.5848 13.3174C98.0014 13.3174 99.7264 14.1341 100.76 15.7674C101.81 17.4008 102.335 19.6591 102.335 22.5424C102.335 25.4424 101.81 27.7174 100.76 29.3674C99.7264 31.0174 98.0014 31.8424 95.5848 31.8424C93.1681 31.8424 91.4348 31.0174 90.3848 29.3674C89.3514 27.7174 88.8348 25.4424 88.8348 22.5424ZM98.8848 22.5424C98.8848 21.3091 98.8014 20.2758 98.6348 19.4424C98.4848 18.5924 98.1681 17.9008 97.6848 17.3674C97.2181 16.8341 96.5181 16.5674 95.5848 16.5674C94.6514 16.5674 93.9431 16.8341 93.4598 17.3674C92.9931 17.9008 92.6764 18.5924 92.5098 19.4424C92.3598 20.2758 92.2848 21.3091 92.2848 22.5424C92.2848 23.8091 92.3598 24.8758 92.5098 25.7424C92.6598 26.5924 92.9764 27.2841 93.4598 27.8174C93.9431 28.3341 94.6514 28.5924 95.5848 28.5924C96.5181 28.5924 97.2264 28.3341 97.7098 27.8174C98.1931 27.2841 98.5098 26.5924 98.6598 25.7424C98.8098 24.8758 98.8848 23.8091 98.8848 22.5424ZM120.354 31.8924L116.504 25.0924H114.854V31.8924H111.354V14.4424H117.904C119.254 14.4424 120.404 14.6841 121.354 15.1674C122.304 15.6341 123.012 16.2758 123.479 17.0924C123.962 17.8924 124.204 18.7924 124.204 19.7924C124.204 20.9424 123.871 21.9841 123.204 22.9174C122.537 23.8341 121.546 24.4674 120.229 24.8174L124.404 31.8924H120.354ZM114.854 22.4674H117.779C118.729 22.4674 119.437 22.2424 119.904 21.7924C120.371 21.3258 120.604 20.6841 120.604 19.8674C120.604 19.0674 120.371 18.4508 119.904 18.0174C119.437 17.5674 118.729 17.3424 117.779 17.3424H114.854V22.4674ZM140.245 24.6674C140.245 25.1674 140.211 25.6174 140.145 26.0174H130.02C130.103 27.0174 130.453 27.8008 131.07 28.3674C131.686 28.9341 132.445 29.2174 133.345 29.2174C134.645 29.2174 135.57 28.6591 136.12 27.5424H139.895C139.495 28.8758 138.728 29.9758 137.595 30.8424C136.461 31.6924 135.07 32.1174 133.42 32.1174C132.086 32.1174 130.886 31.8258 129.82 31.2424C128.77 30.6424 127.945 29.8008 127.345 28.7174C126.761 27.6341 126.47 26.3841 126.47 24.9674C126.47 23.5341 126.761 22.2758 127.345 21.1924C127.928 20.1091 128.745 19.2758 129.795 18.6924C130.845 18.1091 132.053 17.8174 133.42 17.8174C134.736 17.8174 135.911 18.1008 136.945 18.6674C137.995 19.2341 138.803 20.0424 139.37 21.0924C139.953 22.1258 140.245 23.3174 140.245 24.6674ZM136.62 23.6674C136.603 22.7674 136.278 22.0508 135.645 21.5174C135.011 20.9674 134.236 20.6924 133.32 20.6924C132.453 20.6924 131.72 20.9591 131.12 21.4924C130.536 22.0091 130.178 22.7341 130.045 23.6674H136.62ZM141.899 24.9674C141.899 23.5341 142.191 22.2841 142.774 21.2174C143.358 20.1341 144.166 19.3008 145.199 18.7174C146.233 18.1174 147.416 17.8174 148.749 17.8174C150.466 17.8174 151.883 18.2508 152.999 19.1174C154.133 19.9674 154.891 21.1674 155.274 22.7174H151.499C151.299 22.1174 150.958 21.6508 150.474 21.3174C150.008 20.9674 149.424 20.7924 148.724 20.7924C147.724 20.7924 146.933 21.1591 146.349 21.8924C145.766 22.6091 145.474 23.6341 145.474 24.9674C145.474 26.2841 145.766 27.3091 146.349 28.0424C146.933 28.7591 147.724 29.1174 148.724 29.1174C150.141 29.1174 151.066 28.4841 151.499 27.2174H155.274C154.891 28.7174 154.133 29.9091 152.999 30.7924C151.866 31.6758 150.449 32.1174 148.749 32.1174C147.416 32.1174 146.233 31.8258 145.199 31.2424C144.166 30.6424 143.358 29.8091 142.774 28.7424C142.191 27.6591 141.899 26.4008 141.899 24.9674ZM161.338 20.1924C161.788 19.4591 162.372 18.8841 163.088 18.4674C163.822 18.0508 164.655 17.8424 165.588 17.8424V21.5174H164.663C163.563 21.5174 162.73 21.7758 162.163 22.2924C161.613 22.8091 161.338 23.7091 161.338 24.9924V31.8924H157.838V18.0424H161.338V20.1924ZM181.021 18.0424V31.8924H177.496V30.1424C177.046 30.7424 176.454 31.2174 175.721 31.5674C175.004 31.9008 174.221 32.0674 173.371 32.0674C172.287 32.0674 171.329 31.8424 170.496 31.3924C169.662 30.9258 169.004 30.2508 168.521 29.3674C168.054 28.4674 167.821 27.4008 167.821 26.1674V18.0424H171.321V25.6674C171.321 26.7674 171.596 27.6174 172.146 28.2174C172.696 28.8008 173.446 29.0924 174.396 29.0924C175.362 29.0924 176.121 28.8008 176.671 28.2174C177.221 27.6174 177.496 26.7674 177.496 25.6674V18.0424H181.021ZM186.249 16.3924C185.632 16.3924 185.116 16.2008 184.699 15.8174C184.299 15.4174 184.099 14.9258 184.099 14.3424C184.099 13.7591 184.299 13.2758 184.699 12.8924C185.116 12.4924 185.632 12.2924 186.249 12.2924C186.866 12.2924 187.374 12.4924 187.774 12.8924C188.191 13.2758 188.399 13.7591 188.399 14.3424C188.399 14.9258 188.191 15.4174 187.774 15.8174C187.374 16.2008 186.866 16.3924 186.249 16.3924ZM187.974 18.0424V31.8924H184.474V18.0424H187.974ZM195.507 20.9174V27.6174C195.507 28.0841 195.615 28.4258 195.832 28.6424C196.065 28.8424 196.449 28.9424 196.982 28.9424H198.607V31.8924H196.407C193.457 31.8924 191.982 30.4591 191.982 27.5924V20.9174H190.332V18.0424H191.982V14.6174H195.507V18.0424H198.607V20.9174H195.507ZM213.999 24.6674C213.999 25.1674 213.966 25.6174 213.899 26.0174H203.774C203.858 27.0174 204.208 27.8008 204.824 28.3674C205.441 28.9341 206.199 29.2174 207.099 29.2174C208.399 29.2174 209.324 28.6591 209.874 27.5424H213.649C213.249 28.8758 212.483 29.9758 211.349 30.8424C210.216 31.6924 208.824 32.1174 207.174 32.1174C205.841 32.1174 204.641 31.8258 203.574 31.2424C202.524 30.6424 201.699 29.8008 201.099 28.7174C200.516 27.6341 200.224 26.3841 200.224 24.9674C200.224 23.5341 200.516 22.2758 201.099 21.1924C201.683 20.1091 202.499 19.2758 203.549 18.6924C204.599 18.1091 205.808 17.8174 207.174 17.8174C208.491 17.8174 209.666 18.1008 210.699 18.6674C211.749 19.2341 212.558 20.0424 213.124 21.0924C213.708 22.1258 213.999 23.3174 213.999 24.6674ZM210.374 23.6674C210.358 22.7674 210.033 22.0508 209.399 21.5174C208.766 20.9674 207.991 20.6924 207.074 20.6924C206.208 20.6924 205.474 20.9591 204.874 21.4924C204.291 22.0091 203.933 22.7341 203.799 23.6674H210.374ZM220.054 20.1924C220.504 19.4591 221.087 18.8841 221.804 18.4674C222.537 18.0508 223.371 17.8424 224.304 17.8424V21.5174H223.379C222.279 21.5174 221.446 21.7758 220.879 22.2924C220.329 22.8091 220.054 23.7091 220.054 24.9924V31.8924H216.554V18.0424H220.054V20.1924ZM231.962 32.1174C230.828 32.1174 229.812 31.9174 228.912 31.5174C228.012 31.1008 227.295 30.5424 226.762 29.8424C226.245 29.1424 225.962 28.3674 225.912 27.5174H229.437C229.503 28.0508 229.762 28.4924 230.212 28.8424C230.678 29.1924 231.253 29.3674 231.937 29.3674C232.603 29.3674 233.12 29.2341 233.487 28.9674C233.87 28.7008 234.062 28.3591 234.062 27.9424C234.062 27.4924 233.828 27.1591 233.362 26.9424C232.912 26.7091 232.187 26.4591 231.187 26.1924C230.153 25.9424 229.303 25.6841 228.637 25.4174C227.987 25.1508 227.42 24.7424 226.937 24.1924C226.47 23.6424 226.237 22.9008 226.237 21.9674C226.237 21.2008 226.453 20.5008 226.887 19.8674C227.337 19.2341 227.97 18.7341 228.787 18.3674C229.62 18.0008 230.595 17.8174 231.712 17.8174C233.362 17.8174 234.678 18.2341 235.662 19.0674C236.645 19.8841 237.187 20.9924 237.287 22.3924H233.937C233.887 21.8424 233.653 21.4091 233.237 21.0924C232.837 20.7591 232.295 20.5924 231.612 20.5924C230.978 20.5924 230.487 20.7091 230.137 20.9424C229.803 21.1758 229.637 21.5008 229.637 21.9174C229.637 22.3841 229.87 22.7424 230.337 22.9924C230.803 23.2258 231.528 23.4674 232.512 23.7174C233.512 23.9674 234.337 24.2258 234.987 24.4924C235.637 24.7591 236.195 25.1758 236.662 25.7424C237.145 26.2924 237.395 27.0258 237.412 27.9424C237.412 28.7424 237.187 29.4591 236.737 30.0924C236.303 30.7258 235.67 31.2258 234.837 31.5924C234.02 31.9424 233.062 32.1174 231.962 32.1174Z" fill="white"/>
<g clip-path="url(#clip0)">
<path d="M43.4999 21.2257C43.4999 32.263 34.3392 41.2257 23.0083 41.2257C11.6773 41.2257 2.5166 32.263 2.5166 21.2257C2.5166 10.1884 11.6773 1.22574 23.0083 1.22574C34.3392 1.22574 43.4999 10.1884 43.4999 21.2257Z" stroke="white"/>
<path d="M34.352 22.2836C37.0103 18.4085 38.9926 14.0658 40.1614 9.41125C39.8864 9.02151 39.5884 8.64291 39.2791 8.27545C39.1301 8.36453 39.0155 8.50929 38.9697 8.68745C37.9041 13.1416 36.0707 17.3173 33.5957 21.0476C32.8509 19.3439 31.9457 17.6959 30.8687 16.1147C29.0009 13.3754 26.7207 11.0036 24.1312 9.05492C27.2707 6.98376 30.8228 5.52504 34.627 4.76785C34.8218 4.73444 34.9822 4.61195 35.0739 4.45606C34.6499 4.16654 34.2145 3.88816 33.7676 3.63205C29.8489 4.48946 26.2051 6.05953 23.0082 8.25318C19.7999 6.07067 16.1676 4.48946 12.2489 3.63205C11.802 3.88816 11.3666 4.16654 10.9426 4.45606C11.0343 4.61195 11.1947 4.73444 11.3895 4.76785C15.2051 5.52504 18.7457 6.9949 21.8853 9.05492C19.2843 11.0036 17.0155 13.3865 15.1478 16.1147C15.0676 16.2372 14.9874 16.3596 14.9072 16.4821C10.7134 16.2928 6.49678 16.716 2.38324 17.7627C2.36032 17.7627 2.3374 17.7738 2.32594 17.785C2.25719 18.1524 2.21136 18.531 2.16553 18.9096C2.32594 19.021 2.52074 19.0655 2.72699 19.0098C6.4624 18.0522 10.3009 17.6291 14.1166 17.7404C10.5416 23.7757 9.26969 30.7687 10.5072 37.6836C10.9312 37.9954 11.3666 38.285 11.8134 38.5522C20.5447 36.0022 28.027 30.7575 33.2749 23.8203C34.7874 28.3523 35.0968 33.2184 34.1343 38.0288C34.0999 38.2181 34.1457 38.4074 34.2603 38.5411C34.7072 38.2627 35.1312 37.9732 35.5551 37.6725C36.3801 33.0514 36.0822 28.3968 34.7301 24.0207C37.3082 25.6576 39.703 27.5728 41.8457 29.7554C41.903 29.8222 41.9832 29.8667 42.052 29.9001C42.2468 29.4881 42.4301 29.0761 42.5905 28.653C40.1155 26.1921 37.3541 24.0541 34.352 22.2836ZM23.0082 9.83439C25.6207 11.7496 27.9124 14.0992 29.7687 16.8273C30.6968 18.1858 31.4989 19.6111 32.1634 21.081C29.7114 19.8227 27.1218 18.7983 24.4405 18.0411C21.8166 17.295 19.1239 16.8051 16.4082 16.5823C18.253 13.9544 20.4759 11.694 23.0082 9.83439ZM11.7562 37.216C10.6103 30.4569 11.9624 23.6421 15.6062 17.8184C18.4707 18.0077 21.3124 18.4976 24.0853 19.2771C27.0072 20.1122 29.8145 21.2592 32.4614 22.6956C27.4197 29.4992 20.2124 34.666 11.7562 37.216Z" fill="white"/>
</g>
<defs>
<clipPath id="clip0">
<rect width="44" height="41" fill="white" transform="translate(0 0.725739)"/>
</clipPath>
</defs>
</svg>