<svg width="157" height="90" viewBox="0 0 157 90" fill="none" xmlns="http://www.w3.org/2000/svg">
<g clip-path="url(#clip0)">
<path d="M150.412 49.5181C150.412 63.5422 142.612 75.7771 131.051 82.238C125.499 85.3373 119.076 87.1084 112.24 87.1084C106.359 87.1084 100.789 85.7982 95.8155 83.4578C82.9509 77.4127 74.0687 64.4819 74.0687 49.5181C74.0687 28.753 91.1633 11.9277 112.24 11.9277C133.317 11.9277 150.412 28.762 150.412 49.5181Z" fill="#EEF4F8"/>
<g clip-path="url(#clip1)">
<path d="M133.606 93.4622V86.3853C134.319 86.3237 135.013 86.1564 135.672 85.91C136.536 86.4733 137.721 86.6758 138.763 86.6141C149.965 81.2712 162.504 71.7473 157.686 57.8486C152.584 43.1578 133.74 34.9453 119.358 33.2817V28.8278C124.683 22.7719 129.759 4.29615 116.856 2.81738C110.257 -4.374 86.0523 3.24869 93.7375 14.0666C93.3012 20.3601 94.1739 30.5443 99.4903 34.5492C95.287 35.5703 90.9591 35.7023 88.3676 39.5665C85.8386 43.3338 85.7228 49.0376 83.7191 53.2363C82.8108 51.247 82.0449 49.4953 79.5247 49.1873C77.6991 45.3319 75.8379 44.7422 71.9196 44.2845C70.8866 44.1612 67.6095 45.2879 67.3512 45.2967C63.513 45.3759 60.512 42.6913 57.128 46.0097C49.977 53.0338 61.4737 57.919 67.1642 57.9718C70.3612 68.3496 80.7715 80.6991 92.286 71.624V93.4622H133.606ZM141.612 64.1598C141.309 64.7847 139.876 66.9325 133.598 70.2509V57.919C139.297 60.5509 141.149 63.306 141.612 64.1598Z" fill="white"/>
</g>
<path d="M83.5658 69.5422C83.7034 69.5422 83.8319 69.5422 83.9695 69.5241C87.7591 69.2621 90.2366 65.5663 91.7598 62.8102C93.9712 58.8163 96.2193 52.8343 98.6325 44.5301C99.0821 42.994 98.1737 41.3946 96.6138 40.9518C95.0539 40.509 93.4298 41.4036 92.9802 42.9398C90.7688 50.5843 88.6584 56.2861 86.7131 59.8645C84.8137 63.3524 83.6851 63.7319 83.5749 63.759C83.4832 63.7319 82.639 63.4337 81.1342 61.003C79.8312 58.8976 78.5649 56.0693 77.3354 53.3313C76.5554 51.5964 75.7571 49.8072 74.9497 48.2349C74.2248 46.8072 72.463 46.2289 71.0132 46.9428C69.5634 47.6566 68.9762 49.3916 69.7011 50.8193C70.4351 52.2741 71.1784 53.9187 71.9675 55.6717C73.3622 58.7711 74.8028 61.9789 76.4178 64.4819C77.2344 65.747 79.6936 69.5422 83.5658 69.5422Z" fill="#FFC984"/>
<path d="M82.8317 70.6898C83.0795 70.6898 83.3364 70.6807 83.5933 70.6536C90.4568 70.0663 95.1182 66.0904 100.798 43.7259C102.358 37.5994 92.3838 35.1416 90.8239 41.2681C87.071 56.0512 84.3641 57.2711 82.9235 59.512C81.6756 57.5693 80.134 54.1626 79.1981 52.0934C78.4548 50.4578 69.0863 54.6054 69.8112 56.2048C73.0319 63.3434 76.3536 70.6898 82.8317 70.6898Z" fill="#2684FE"/>
<path d="M131.051 37.9518V82.238C125.499 85.3374 119.076 87.1085 112.24 87.1085C106.358 87.1085 100.789 85.7982 95.8154 83.4578V37.9518C107.561 34.0934 119.306 34.0934 131.051 37.9518Z" fill="#2684FE"/>
<path d="M131 71.6576V70.936C122.259 70.936 117.811 70.6654 113.509 70.4039C109.207 70.1423 104.75 69.8717 96 69.8717V70.5933C104.741 70.5933 109.189 70.8639 113.491 71.1255C117.793 71.387 122.241 71.6576 131 71.6576Z" fill="white"/>
<path d="M131 79V78.2784C122.268 78.2784 117.829 77.4125 113.536 76.5736C109.225 75.7347 104.768 74.8598 96 74.8598V75.5814C104.732 75.5814 109.171 76.4473 113.464 77.2862C117.775 78.1341 122.232 79 131 79Z" fill="white"/>
<path d="M96 66.0742C104.759 66.0742 109.216 65.533 113.527 65.0098C117.82 64.4957 122.259 63.9545 131 63.9545V63.2329C122.241 63.2329 117.784 63.7741 113.473 64.2973C109.18 64.8204 104.732 65.3526 96 65.3526V66.0742Z" fill="white"/>
<path d="M96 60.7975C104.768 60.7975 109.216 60.1931 113.527 59.6068C117.82 59.0295 122.259 58.4252 131 58.4252V57.7036C122.232 57.7036 117.784 58.3079 113.473 58.8942C109.18 59.4715 104.741 60.0759 96 60.0759V60.7975Z" fill="white"/>
<path d="M96 55.5117C104.768 55.5117 109.225 54.763 113.536 54.0414C117.829 53.3198 122.268 52.5802 131 52.5802V51.8585C122.232 51.8585 117.775 52.6072 113.464 53.3288C109.171 54.0504 104.732 54.7901 96 54.7901V55.5117Z" fill="white"/>
<path d="M131 48.4309V47.7093C122.259 47.7093 117.811 47.3214 113.518 46.9516C109.216 46.5818 104.759 46.1939 96 46.1939V46.9155C104.741 46.9155 109.189 47.3034 113.482 47.6732C117.784 48.043 122.241 48.4309 131 48.4309Z" fill="white"/>
<path d="M96 44.0021C104.759 44.0021 109.207 43.7495 113.509 43.5059C117.811 43.2624 122.259 43.0098 131 43.0098V42.2882C122.241 42.2882 117.793 42.5408 113.491 42.7843C109.189 43.0279 104.75 43.2804 96 43.2804V44.0021Z" fill="white"/>
<path d="M131 39.2394V38.5178C122.268 38.5178 117.829 37.6248 113.536 36.7589C109.225 35.893 104.768 35 96 35V35.7216C104.732 35.7216 109.171 36.6146 113.464 37.4805C117.775 38.3465 122.232 39.2394 131 39.2394Z" fill="white"/>
<path d="M113.433 40.8434C117.487 40.8434 120.774 39.5488 120.774 37.9518C120.774 36.3548 117.487 35.0602 113.433 35.0602C109.379 35.0602 106.092 36.3548 106.092 37.9518C106.092 39.5488 109.379 40.8434 113.433 40.8434Z" fill="#FFC984"/>
<path d="M116.369 37.2289V23.494C116.369 21.8946 114.773 20.6024 112.809 20.6024C110.846 20.6024 109.249 21.8946 109.249 23.494V37.2289C109.24 38.8283 116.369 38.8283 116.369 37.2289Z" fill="#FFC984"/>
<path d="M136.923 81.3253C137.364 81.3253 137.813 81.2259 138.235 81.0181C145.347 77.512 154.798 71.8735 154.798 63.3434C154.798 55.8434 147.457 48.5873 132.363 41.1506C130.913 40.4367 129.151 41.0151 128.426 42.4428C127.702 43.8705 128.289 45.6054 129.739 46.3193C136.786 49.7892 141.988 53.1777 145.2 56.4126C147.677 58.8976 148.934 61.2289 148.934 63.3434C148.934 65.512 147.586 67.7711 144.925 70.0663C142.741 71.9458 139.694 73.8434 135.611 75.8494C134.161 76.5633 133.574 78.2982 134.299 79.7259C134.813 80.7379 135.85 81.3253 136.923 81.3253Z" fill="#FFE5B1"/>
<path d="M125.187 82.7711C125.765 82.7711 126.334 82.6626 126.867 82.4367L127.096 82.3464C128.252 81.8765 128.885 81.6145 129.583 81.6145C130.28 81.6145 130.913 81.8765 132.069 82.3464L132.299 82.4367C132.84 82.6536 133.409 82.7711 133.978 82.7711C135.767 82.7711 137.364 81.7229 138.052 80.0964C138.501 79.0301 138.501 77.8464 138.052 76.7801C137.602 75.7048 136.758 74.8735 135.666 74.4307C133.069 73.3735 131.308 72.9398 129.583 72.9398C127.858 72.9398 126.096 73.3735 123.499 74.4307C122.214 74.9548 121.71 75.9488 121.517 76.6807C121.242 77.7108 121.361 78.9217 121.857 80.0964C122.636 81.9669 123.637 82.7711 125.187 82.7711Z" fill="#FFE5B1"/>
<path d="M139.217 82.9608C146.851 79.2018 157 73.0753 157 63.3434C157 54.9398 148.659 44.3675 131.041 37.9518C128.38 36.9849 127.013 38.738 126.444 41.4759C125.875 44.2139 126.013 50.4036 128.738 51.1536C143.328 55.1928 146.714 61.8795 146.714 63.3434C146.714 65.4488 144.613 68.9819 134.611 73.9066C132.088 75.1536 138.483 83.3223 139.217 82.9608Z" fill="#2684FE"/>
<path d="M113.433 37.9518C115.057 37.9518 116.369 36.6596 116.369 35.0602V27.8313C116.369 26.2319 115.057 24.9398 113.433 24.9398C111.809 24.9398 110.497 26.2319 110.497 27.8313V35.0602C110.497 36.6596 111.809 37.9518 113.433 37.9518Z" fill="#FFC984"/>
<path d="M97.3203 13.7349C98.1645 22.1295 104.367 29.0151 109.726 29.0151C115.085 29.0151 121.177 22.1114 122.132 13.7349C123.086 5.35843 116.883 3.03614 115.452 4.56325C111.956 -2.39458 96.366 4.22891 97.3203 13.7349Z" fill="#1F3A93"/>
<path d="M98.0176 22.7711V16.988C98.0176 11.8012 102.294 7.59036 107.56 7.59036C112.827 7.59036 117.103 11.8012 117.103 16.988V22.7711C117.103 27.9578 112.827 32.1687 107.56 32.1687C102.284 32.1687 98.0176 27.9669 98.0176 22.7711Z" fill="#FFE5B1"/>
<path d="M110.497 16.2651C110.497 18.6596 112.47 20.6024 114.901 20.6024V16.2651H110.497Z" fill="#1F3A93"/>
<path d="M114.901 11.9277L110.497 16.2651H114.901V11.9277Z" fill="#2684FE"/>
<path d="M110.497 14.8193L117.103 9.03614V16.2651H110.497V14.8193Z" fill="#1F3A93"/>
<path d="M116.369 14.8193C114.745 14.8193 113.433 16.1114 113.433 17.7108V23.494C116.672 23.494 119.306 20.9006 119.306 17.7108C119.306 16.1114 117.993 14.8193 116.369 14.8193Z" fill="#FFE5B1"/>
<path d="M116.369 7.59036C116.369 4.4006 114.626 1.08434 109.763 1.08434C104.9 1.08434 95.8154 4.4006 95.8154 7.59036C95.8154 10.7801 99.761 13.3735 104.624 13.3735C109.487 13.3735 116.369 10.7801 116.369 7.59036Z" fill="#1F3A93"/>
<path d="M66.4527 53.5572C68.866 53.5572 71.215 53.0964 73.4447 52.1837C74.9404 51.5693 75.6561 49.8795 75.0321 48.4066C74.4082 46.9337 72.6923 46.2289 71.1966 46.8434C68.1319 48.0904 64.7644 48.0904 61.6996 46.8434C60.204 46.2289 58.4881 46.9337 57.8641 48.4066C57.2402 49.8795 57.9559 51.5693 59.4516 52.1837C61.6905 53.0964 64.0395 53.5572 66.4527 53.5572Z" fill="#FFC984"/>
<path d="M113.433 37.9518C115.057 37.9518 116.369 36.6596 116.369 35.0602V27.8313C116.369 26.2319 115.057 24.9398 113.433 24.9398C111.809 24.9398 110.497 26.2319 110.497 27.8313V35.0602C110.497 36.6596 111.809 37.9518 113.433 37.9518Z" fill="#FFC984"/>
<path d="M97.3203 13.7349C98.1645 22.1295 104.367 29.0151 109.726 29.0151C115.085 29.0151 121.177 22.1114 122.132 13.7349C123.086 5.35843 116.883 3.03614 115.452 4.56325C111.956 -2.39458 96.366 4.22891 97.3203 13.7349Z" fill="#151D30"/>
<path d="M98.0176 22.7711V16.988C98.0176 11.8012 102.294 7.59036 107.56 7.59036C112.827 7.59036 117.103 11.8012 117.103 16.988V22.7711C117.103 27.9578 112.827 32.1687 107.56 32.1687C102.284 32.1687 98.0176 27.9669 98.0176 22.7711Z" fill="#FFE5B1"/>
<path d="M110.497 16.2651C110.497 18.6596 112.47 20.6024 114.901 20.6024V16.2651H110.497Z" fill="#151D30"/>
<path d="M114.901 11.9277L110.497 16.2651H114.901V11.9277Z" fill="#2684FE"/>
<path d="M110.497 14.8193L117.103 9.03614V16.2651H110.497V14.8193Z" fill="#151D30"/>
<path d="M116.369 14.8193C114.745 14.8193 113.433 16.1114 113.433 17.7108V23.494C116.672 23.494 119.306 20.9006 119.306 17.7108C119.306 16.1114 117.993 14.8193 116.369 14.8193Z" fill="#FFE5B1"/>
<path d="M116.369 7.59036C116.369 4.4006 114.626 1.08434 109.763 1.08434C104.9 1.08434 95.8154 4.4006 95.8154 7.59036C95.8154 10.7801 99.761 13.3735 104.624 13.3735C109.487 13.3735 116.369 10.7801 116.369 7.59036Z" fill="#151D30"/>
<path d="M66.4527 53.5572C68.866 53.5572 71.215 53.0964 73.4447 52.1837C74.9404 51.5693 75.6561 49.8795 75.0321 48.4066C74.4082 46.9337 72.6923 46.2289 71.1966 46.8434C68.1319 48.0904 64.7644 48.0904 61.6996 46.8434C60.204 46.2289 58.4881 46.9337 57.8641 48.4066C57.2402 49.8795 57.9559 51.5693 59.4516 52.1837C61.6905 53.0964 64.0395 53.5572 66.4527 53.5572Z" fill="#FFC984"/>
<path d="M73.7935 9.03615H59.1122C56.6806 9.03615 54.7078 10.9789 54.7078 13.3735V27.8313C54.7078 30.2259 56.6806 32.1687 59.1122 32.1687H73.7935C76.2251 32.1687 78.1979 30.2259 78.1979 27.8313V13.3735C78.1979 10.9789 76.2251 9.03615 73.7935 9.03615Z" fill="#F52B74"/>
<path d="M62.1952 26.5211L66.2509 24.4337L70.1598 26.7831C70.5269 27 70.9857 26.6928 70.9123 26.2771L70.1507 21.8313L73.6191 18.8946C73.9403 18.6235 73.7935 18.0994 73.3714 18.0362L68.8477 17.3765L67.0859 13.2199C66.9208 12.8313 66.3702 12.8133 66.1775 13.1928L64.1405 17.2319L59.5801 17.5934C59.158 17.6295 58.9653 18.1355 59.2681 18.4337L62.5347 21.5874L61.4795 25.9699C61.3786 26.3765 61.8098 26.7109 62.1952 26.5211Z" fill="white"/>
<path d="M66.4528 3.61446C66.6547 3.61446 66.8199 3.45181 66.8199 3.25301V0.361446C66.8199 0.162651 66.6547 0 66.4528 0C66.251 0 66.0858 0.162651 66.0858 0.361446V3.25301C66.0858 3.45181 66.251 3.61446 66.4528 3.61446Z" fill="#F52B74"/>
<path d="M75.2616 5.93673C75.39 5.93673 75.5093 5.87348 75.5827 5.75601L76.3168 4.49999C76.4177 4.3283 76.3535 4.1024 76.1792 4.003C76.0048 3.9036 75.7754 3.96686 75.6745 4.13854L74.9404 5.39457C74.8395 5.56625 74.9037 5.79216 75.0781 5.89155C75.1331 5.9277 75.1973 5.93673 75.2616 5.93673Z" fill="#F52B74"/>
<path d="M81.7123 12.2891C81.7765 12.2891 81.8407 12.2711 81.8958 12.244L84.4375 10.7982C84.6118 10.6988 84.6761 10.4729 84.5751 10.3012C84.4742 10.1295 84.2448 10.0663 84.0705 10.1657L81.5287 11.6114C81.3544 11.7108 81.2902 11.9367 81.3911 12.1084C81.4645 12.2259 81.5838 12.2891 81.7123 12.2891Z" fill="#F52B74"/>
<path d="M84.0704 20.9639H85.5385C85.7404 20.9639 85.9056 20.8012 85.9056 20.6024C85.9056 20.4036 85.7404 20.241 85.5385 20.241H84.0704C83.8685 20.241 83.7034 20.4036 83.7034 20.6024C83.7034 20.8012 83.8685 20.9639 84.0704 20.9639Z" fill="#F52B74"/>
<path d="M84.254 31.0843C84.3824 31.0843 84.5017 31.0211 84.5751 30.9036C84.6761 30.7319 84.6118 30.506 84.4375 30.4066L81.8958 28.9608C81.7214 28.8614 81.492 28.9247 81.3911 29.0964C81.2902 29.2681 81.3544 29.494 81.5287 29.5934L84.0705 31.0392C84.1255 31.0663 84.1897 31.0843 84.254 31.0843Z" fill="#F52B74"/>
<path d="M75.9956 37.238C76.0599 37.238 76.1241 37.2199 76.1792 37.1928C76.3535 37.0934 76.4177 36.8675 76.3168 36.6958L75.5827 35.4398C75.4818 35.2681 75.2524 35.2048 75.0781 35.3042C74.9037 35.4036 74.8395 35.6295 74.9404 35.8012L75.6745 37.0572C75.7479 37.1747 75.8672 37.238 75.9956 37.238Z" fill="#F52B74"/>
<path d="M66.4528 41.2048C66.6547 41.2048 66.8199 41.0422 66.8199 40.8434V37.9518C66.8199 37.753 66.6547 37.5904 66.4528 37.5904C66.251 37.5904 66.0858 37.753 66.0858 37.9518V40.8434C66.0858 41.0422 66.251 41.2048 66.4528 41.2048Z" fill="#F52B74"/>
<path d="M56.9099 37.238C57.0384 37.238 57.1576 37.1747 57.231 37.0572L57.9651 35.8012C58.0661 35.6295 58.0018 35.4036 57.8275 35.3042C57.6531 35.2048 57.4237 35.2681 57.3228 35.4398L56.5887 36.6958C56.4878 36.8675 56.552 37.0934 56.7264 37.1928C56.7814 37.2289 56.8457 37.238 56.9099 37.238Z" fill="#F52B74"/>
<path d="M48.6517 31.0843C48.7159 31.0843 48.7802 31.0663 48.8352 31.0392L51.3769 29.5934C51.5513 29.494 51.6155 29.2681 51.5146 29.0964C51.4136 28.9247 51.1842 28.8614 51.0099 28.9608L48.4682 30.4066C48.2939 30.506 48.2296 30.7319 48.3306 30.9036C48.404 31.0211 48.5233 31.0843 48.6517 31.0843Z" fill="#F52B74"/>
<path d="M47.367 20.9639H48.8352C49.037 20.9639 49.2022 20.8012 49.2022 20.6024C49.2022 20.4036 49.037 20.241 48.8352 20.241H47.367C47.1652 20.241 47 20.4036 47 20.6024C47 20.8012 47.1652 20.9639 47.367 20.9639Z" fill="#F52B74"/>
<path d="M51.1934 12.2891C51.3219 12.2891 51.4412 12.2259 51.5146 12.1084C51.6155 11.9367 51.5513 11.7108 51.3769 11.6114L48.8352 10.1657C48.6609 10.0663 48.4315 10.1295 48.3306 10.3012C48.2296 10.4729 48.2939 10.6988 48.4682 10.7982L51.0099 12.244C51.0741 12.2711 51.1292 12.2891 51.1934 12.2891Z" fill="#F52B74"/>
<path d="M57.644 5.93673C57.7082 5.93673 57.7724 5.91866 57.8275 5.89155C58.0018 5.79216 58.0661 5.56625 57.9651 5.39457L57.231 4.13854C57.1301 3.96686 56.9007 3.9036 56.7264 4.003C56.552 4.1024 56.4878 4.3283 56.5887 4.49999L57.3228 5.75601C57.3962 5.87348 57.5155 5.93673 57.644 5.93673Z" fill="#F52B74"/>
</g>
<g clip-path="url(#clip2)">
<path d="M0 59C0 63.9175 1.2914 68.5462 3.5625 72.5625C4.97859 75.0737 6.78656 77.3575 8.88844 79.3175C10.3045 80.6388 11.8631 81.82 13.5375 82.835C17.8837 85.4775 23.0137 87 28.5 87C29.7023 87 30.8958 86.93 32.0625 86.7812C33.7458 86.5713 35.3845 86.2212 36.9609 85.74C38.7333 85.1975 40.4344 84.4975 42.0375 83.64C50.9437 78.915 57 69.6488 57 59C57 46.575 48.7617 36.0312 37.3528 32.3737C35.9011 31.91 34.3959 31.5512 32.8552 31.3237C31.8755 31.175 30.878 31.0788 29.8716 31.035C29.4173 31.0088 28.9631 31 28.5 31C25.7836 31 23.1562 31.3763 20.6625 32.0763H20.6536C20.6091 32.085 20.5734 32.1025 20.5289 32.1112C18.8367 32.5925 17.2158 33.2225 15.675 33.9925C14.9447 34.3512 14.2322 34.745 13.5375 35.165C5.415 40.1 0 48.9287 0 59Z" fill="#EEF4F8"/>
<g clip-path="url(#clip3)">
<path d="M-0.890171 102.001C-0.890171 93.6989 -0.890171 85.3973 -0.890171 77.0867C-0.890171 67.4539 -2.71957 57.6682 8.62997 53.5849C5.51727 48.3323 8.25681 37.0715 9.80406 31.4142C11.9156 23.6702 19.7338 19.4879 27.4791 20.0545C35.9708 20.6661 40.9584 25.514 41.5682 33.8426C42.0233 40.0216 46.0461 50.7787 40.2758 55.5636C47.9119 60.4924 45.7094 71.3754 45.7094 79.1194C45.7094 86.7464 45.7094 94.3735 45.7094 102.001H-0.890171Z" fill="white"/>
</g>
<path d="M3.56245 63.9V72.5625C4.97855 75.0738 6.78652 77.3575 8.88839 79.3175C10.3045 80.6388 11.8631 81.82 13.5375 82.835V61.1C13.5375 59.035 13.8225 56.7863 12.7893 56.2088C12.4687 56.0338 12.0234 56.0075 11.4 56.2C8.57667 57.075 3.56245 59.3238 3.56245 63.9Z" fill="#F8CF40"/>
<path d="M32.0625 61.1V86.7812C33.7458 86.5712 35.3845 86.2212 36.9609 85.74C38.7333 85.1975 40.4344 84.4975 42.0375 83.64V63.9C42.0375 59.3237 37.0233 57.075 34.2 56.2C31.5726 55.3862 32.0625 58.3962 32.0625 61.1Z" fill="#F8CF40"/>
<path d="M8.88844 79.3175C10.3045 80.6388 11.8631 81.82 13.5375 82.835C17.8837 85.4775 23.0137 87 28.5 87C29.7023 87 30.8958 86.93 32.0625 86.7812C33.7458 86.5712 35.3845 86.2212 36.9609 85.74C36.48 67.3737 34.2 56.1912 34.2 56.1912C32.9086 55.7712 31.3233 55.4388 29.5777 55.2113C29.3995 55.185 29.2125 55.1675 29.0344 55.1412C28.9097 55.1237 28.785 55.115 28.6692 55.0975C28.1794 55.045 27.6717 54.9925 27.1641 54.9575C26.9058 54.94 26.6475 54.9225 26.3803 54.905C26.1398 54.8875 25.8994 54.8788 25.65 54.8613C25.6322 54.8613 25.6233 54.8613 25.6055 54.8613C25.3739 54.8525 25.1423 54.8437 24.9108 54.835C24.795 54.8262 24.6792 54.8262 24.5634 54.8262C24.4655 54.8262 24.3586 54.8175 24.2517 54.8175C24.225 54.8175 24.2072 54.8175 24.1805 54.8175C24.0736 54.8175 23.9667 54.8087 23.8598 54.8087C23.7441 54.8087 23.6283 54.8 23.5125 54.8C23.4234 54.8 23.3255 54.8 23.2275 54.8C23.1028 54.8 22.9781 54.8 22.8623 54.8C22.515 54.8 22.1677 54.8 21.8292 54.8087C21.2058 54.8175 20.5734 54.835 19.9589 54.87C19.8164 54.8787 19.6739 54.8875 19.5314 54.8962C16.4231 55.0712 13.5197 55.5087 11.4089 56.2C11.4 56.2 9.64547 64.8013 8.88844 79.3175Z" fill="#F8CF40"/>
<path d="M25.65 24C31.9467 24 37.7625 29.0138 37.7625 35.2C37.7625 39.4 41.414 48.9462 38.475 52C34.0664 56.5762 17.2335 56.5762 12.825 52C9.88589 48.9462 13.5375 39.4 13.5375 35.2C13.5375 29.0138 19.3532 24 25.65 24Z" fill="#7717F3"/>
<path d="M21.375 63.9C16.2628 63.9 12.1124 61.3888 12.1124 58.3C12.1124 57.3725 12.4954 56.4975 13.1545 55.7275C17.5275 54.7388 23.8865 54.5375 29.0343 55.15C30.0496 56.0513 30.6375 57.1275 30.6375 58.3C30.6375 61.3888 26.4871 63.9 21.375 63.9Z" fill="#FFE5B1"/>
<path d="M21.375 61.8C17.4384 61.8 14.25 59.9187 14.25 57.6C14.25 56.7512 14.6775 55.9725 15.4078 55.3075C18.8902 54.7912 23.085 54.6688 26.9058 54.9487C27.9033 55.675 28.5 56.5937 28.5 57.6C28.5 59.9187 25.3116 61.8 21.375 61.8Z" fill="#FFE5B1"/>
<path d="M25.6499 55.5V46.4C25.6499 44.8512 24.3763 43.6 22.7999 43.6C21.2235 43.6 19.9499 44.8512 19.9499 46.4V55.5C19.9499 57.0488 25.6499 57.0488 25.6499 55.5Z" fill="#FFC984"/>
<path d="M35.625 42.69V37.5188C35.625 32.8813 31.7953 29.1188 27.075 29.1188C22.3547 29.1188 18.525 32.8813 18.525 37.5188V42.69C18.525 47.3275 22.3547 51.09 27.075 51.09C31.7953 51.09 35.625 47.3275 35.625 42.69Z" fill="#FFE5B1"/>
<path d="M30.6285 28.2C30.6285 35.2 20.6535 32.925 20.6535 37.3V28.2H30.6285Z" fill="#7717F3"/>
<path d="M15.675 31H20.6625V38H15.675V31Z" fill="#7717F3"/>
<path d="M15.6749 40.8H19.95V49.2H15.6749V40.8Z" fill="#7717F3"/>
<path d="M19.2375 35.2C20.422 35.2 21.375 36.1362 21.375 37.3V43.6C19.0148 43.6 17.1 41.7187 17.1 39.4V37.3C17.1 36.1362 18.053 35.2 19.2375 35.2Z" fill="#FFE5B1"/>
<path d="M25.65 24C31.9467 24 37.7625 29.0138 37.7625 35.2C37.7625 39.4 41.414 48.9462 38.475 52C34.0664 56.5762 17.2335 56.5762 12.825 52C9.88589 48.9462 13.5375 39.4 13.5375 35.2C13.5375 29.0138 19.3532 24 25.65 24Z" fill="#151D30"/>
<path d="M21.375 63.9C16.2628 63.9 12.1124 61.3888 12.1124 58.3C12.1124 57.3725 12.4954 56.4975 13.1545 55.7275C17.5275 54.7388 23.8865 54.5375 29.0343 55.15C30.0496 56.0513 30.6375 57.1275 30.6375 58.3C30.6375 61.3888 26.4871 63.9 21.375 63.9Z" fill="#FFE5B1"/>
<path d="M21.375 61.8C17.4384 61.8 14.25 59.9187 14.25 57.6C14.25 56.7512 14.6775 55.9725 15.4078 55.3075C18.8902 54.7912 23.085 54.6688 26.9058 54.9487C27.9033 55.675 28.5 56.5937 28.5 57.6C28.5 59.9187 25.3116 61.8 21.375 61.8Z" fill="#FFE5B1"/>
<path d="M25.6499 55.5V46.4C25.6499 44.8512 24.3763 43.6 22.7999 43.6C21.2235 43.6 19.9499 44.8512 19.9499 46.4V55.5C19.9499 57.0488 25.6499 57.0488 25.6499 55.5Z" fill="#FFC984"/>
<path d="M35.625 42.69V37.5188C35.625 32.8813 31.7953 29.1188 27.075 29.1188C22.3547 29.1188 18.525 32.8813 18.525 37.5188V42.69C18.525 47.3275 22.3547 51.09 27.075 51.09C31.7953 51.09 35.625 47.3275 35.625 42.69Z" fill="#FFE5B1"/>
<path d="M30.6285 28.2C30.6285 35.2 20.6535 32.925 20.6535 37.3V28.2H30.6285Z" fill="#151D30"/>
<path d="M15.675 31H20.6625V38H15.675V31Z" fill="#151D30"/>
<path d="M15.6749 40.8H19.95V49.2H15.6749V40.8Z" fill="#151D30"/>
<path d="M19.2375 35.2C20.422 35.2 21.375 36.1362 21.375 37.3V43.6C19.0148 43.6 17.1 41.7187 17.1 39.4V37.3C17.1 36.1362 18.053 35.2 19.2375 35.2Z" fill="#FFE5B1"/>
<circle cx="8.63369" cy="62.2414" r="0.769554" fill="white"/>
<circle cx="19.1078" cy="67.0398" r="0.769554" fill="white"/>
<circle cx="29.5825" cy="62.2414" r="0.769554" fill="white"/>
<circle cx="39.0537" cy="66.8647" r="0.769554" fill="white"/>
<circle cx="8.63369" cy="71.6696" r="0.769554" fill="white"/>
<circle cx="19.1078" cy="76.468" r="0.769554" fill="white"/>
<circle cx="29.5825" cy="71.6696" r="0.769554" fill="white"/>
<circle cx="39.0537" cy="76.2929" r="0.769554" fill="white"/>
<circle cx="5.58633" cy="67.0398" r="0.769554" fill="white"/>
<circle cx="16.0606" cy="71.8382" r="0.769554" fill="white"/>
<circle cx="26.5352" cy="67.0398" r="0.769554" fill="white"/>
<circle cx="36.0065" cy="71.6631" r="0.769554" fill="white"/>
<circle cx="5.58633" cy="76.468" r="0.769554" fill="white"/>
<circle cx="16.0606" cy="81.2664" r="0.769554" fill="white"/>
<circle cx="26.5352" cy="76.468" r="0.769554" fill="white"/>
<circle cx="26.5352" cy="86.0117" r="0.769554" fill="white"/>
<circle cx="32.7959" cy="86.0117" r="0.769554" fill="white"/>
<circle cx="19.1078" cy="86.0117" r="0.769554" fill="white"/>
<circle cx="36.0065" cy="81.0913" r="0.769554" fill="white"/>
<circle cx="11.6809" cy="67.0398" r="0.769554" fill="white"/>
<circle cx="22.1552" cy="71.8382" r="0.769554" fill="white"/>
<circle cx="32.6298" cy="67.0398" r="0.769554" fill="white"/>
<circle cx="36.0065" cy="62.235" r="0.769554" fill="white"/>
<circle cx="11.6809" cy="76.468" r="0.769554" fill="white"/>
<circle cx="22.1552" cy="81.2664" r="0.769554" fill="white"/>
<circle cx="32.6298" cy="76.468" r="0.769554" fill="white"/>
<circle cx="32.6298" cy="57.4311" r="0.769554" fill="white"/>
<circle cx="29.5825" cy="81.0913" r="0.769554" fill="white"/>
</g>
<defs>
<clipPath id="clip0">
<rect width="110" height="90" fill="white" transform="translate(47)"/>
</clipPath>
<clipPath id="clip1">
<rect width="103.889" height="93.4615" fill="white" transform="matrix(-1 0 0 1 158.746 0)"/>
</clipPath>
<clipPath id="clip2">
<rect width="57" height="63" fill="white" transform="matrix(-1 0 0 1 57 24)"/>
</clipPath>
<clipPath id="clip3">
<rect width="47" height="82" fill="white" transform="matrix(-1 0 0 1 46 20)"/>
</clipPath>
</defs>
</svg>