<svg width="297" height="53" viewBox="0 0 297 53" fill="none" xmlns="http://www.w3.org/2000/svg">
<g clip-path="url(#clip0)">
<path d="M52.5 26.2406C52.5 40.3405 41.3931 51.7406 27.7146 51.7406C14.0361 51.7406 2.9292 40.3405 2.9292 26.2406C2.9292 12.1407 14.0361 0.740601 27.7146 0.740601C41.3931 0.740601 52.5 12.1407 52.5 26.2406Z" fill="#6A86FF" stroke="#2C50EE"/>
<path d="M41.3786 27.5823C44.5807 22.6675 46.9685 17.1597 48.3763 11.2563C48.045 10.7621 47.6862 10.2819 47.3135 9.81583C47.1341 9.92881 46.9961 10.1124 46.9409 10.3384C45.6573 15.9875 43.4489 21.2835 40.4677 26.0146C39.5706 23.8538 38.4802 21.7637 37.1828 19.7583C34.9331 16.2841 32.1864 13.2759 29.0672 10.8044C32.8489 8.17759 37.1276 6.3275 41.7099 5.36716C41.9445 5.32479 42.1377 5.16944 42.2482 4.97172C41.7375 4.60453 41.213 4.25146 40.6747 3.92664C35.9544 5.01409 31.5654 7.0054 27.7146 9.78758C23.85 7.01952 19.4747 5.01409 14.7544 3.92664C14.2161 4.25146 13.6917 4.60453 13.181 4.97172C13.2914 5.16944 13.4846 5.32479 13.7193 5.36716C18.3154 6.3275 22.5802 8.19171 26.362 10.8044C23.2289 13.2759 20.4961 16.2982 18.2463 19.7583C18.1497 19.9136 18.0531 20.069 17.9565 20.2243C12.9049 19.9842 7.82577 20.5209 2.87082 21.8484C2.84322 21.8484 2.81561 21.8625 2.80181 21.8767C2.719 22.3427 2.66379 22.8229 2.60858 23.3031C2.80181 23.4443 3.03645 23.5008 3.28488 23.4302C7.78436 22.2156 12.4081 21.6789 17.0042 21.8202C12.6979 29.4747 11.1659 38.3438 12.6565 47.114C13.1672 47.5095 13.6917 47.8767 14.2299 48.2156C24.7471 44.9815 33.7599 38.3297 40.0812 29.5312C41.9031 35.2792 42.2758 41.4508 41.1164 47.5518C41.075 47.7919 41.1302 48.032 41.2682 48.2015C41.8065 47.8484 42.3172 47.4812 42.8279 47.0999C43.8216 41.239 43.4627 35.3357 41.8341 29.7854C44.9396 31.8615 47.8242 34.2906 50.4052 37.0586C50.4742 37.1434 50.5708 37.1999 50.6536 37.2422C50.8883 36.7197 51.1091 36.1971 51.3023 35.6605C48.3211 32.5393 44.9948 29.8278 41.3786 27.5823ZM27.7146 11.793C30.8614 14.2221 33.6219 17.202 35.8578 20.6621C36.9758 22.3851 37.9419 24.1928 38.7424 26.057C35.7888 24.4611 32.6695 23.1618 29.4398 22.2015C26.2792 21.2553 23.0357 20.6339 19.7646 20.3514C21.9867 17.0184 24.6643 14.1515 27.7146 11.793ZM14.1609 46.5209C12.7807 37.9484 14.4094 29.3052 18.7984 21.919C22.2489 22.1591 25.6719 22.7805 29.012 23.7691C32.5315 24.8283 35.913 26.283 39.1013 28.1048C33.0284 36.7338 24.3469 43.2868 14.1609 46.5209Z" fill="#2C50EE"/>
</g>
<path d="M77.306 22.0275C77.408 19.9258 78.122 18.3074 79.4481 17.1725C80.7945 16.0166 82.5591 15.4386 84.742 15.4386C86.2312 15.4386 87.5063 15.7118 88.5671 16.2583C89.6279 16.7837 90.4236 17.5088 90.954 18.4335C91.5048 19.3373 91.7802 20.3671 91.7802 21.5231C91.7802 22.8472 91.4436 23.9716 90.7704 24.8963C90.1175 25.8001 89.3321 26.4096 88.4141 26.7248V26.8509C89.5973 27.2293 90.5154 27.9018 91.1682 28.8686C91.8414 29.8354 92.178 31.0754 92.178 32.5886C92.178 33.8497 91.8924 34.9741 91.3212 35.9619C90.7704 36.9497 89.9441 37.7274 88.8425 38.2948C87.7613 38.8413 86.4557 39.1145 84.9256 39.1145C82.6203 39.1145 80.7435 38.5155 79.2951 37.3175C77.8466 36.1195 77.0816 34.3541 77 32.0212H81.1617C81.2025 33.051 81.5391 33.8812 82.1715 34.5117C82.8244 35.1212 83.7118 35.426 84.8338 35.426C85.8742 35.426 86.6699 35.1317 87.2207 34.5433C87.7919 33.9338 88.0775 33.1561 88.0775 32.2103C88.0775 30.9493 87.6899 30.0456 86.9147 29.4991C86.1394 28.9527 84.9358 28.6794 83.3038 28.6794H82.4163V25.054H83.3038C86.2006 25.054 87.6491 24.0556 87.6491 22.059C87.6491 21.1553 87.3839 20.4512 86.8535 19.9468C86.3434 19.4424 85.5988 19.1902 84.6196 19.1902C83.6608 19.1902 82.9162 19.4634 82.3857 20.0098C81.8757 20.5353 81.5799 21.2078 81.4983 22.0275H77.306Z" fill="#151D30"/>
<path d="M107.131 21.7122C106.927 20.8295 106.57 20.1675 106.06 19.7261C105.57 19.2847 104.856 19.0641 103.917 19.0641C102.51 19.0641 101.469 19.6525 100.796 20.8295C100.143 21.9855 99.8068 23.877 99.7864 26.5042C100.276 25.6635 100.99 25.0119 101.928 24.5496C102.867 24.0662 103.887 23.8245 104.989 23.8245C106.315 23.8245 107.488 24.1187 108.508 24.7072C109.528 25.2957 110.323 26.1574 110.894 27.2923C111.466 28.4062 111.751 29.7513 111.751 31.3276C111.751 32.8198 111.455 34.1544 110.864 35.3314C110.293 36.4873 109.446 37.3911 108.324 38.0426C107.202 38.6942 105.866 39.0199 104.315 39.0199C102.194 39.0199 100.521 38.5365 99.2968 37.5697C98.0931 36.6029 97.2465 35.2578 96.7569 33.5344C96.2877 31.79 96.0531 29.6462 96.0531 27.1031C96.0531 23.257 96.6957 20.3566 97.9809 18.402C99.2662 16.4264 101.296 15.4386 104.07 15.4386C106.213 15.4386 107.875 16.0376 109.058 17.2356C110.242 18.4335 110.925 19.9258 111.109 21.7122H107.131ZM104.009 27.4499C102.928 27.4499 102.02 27.7757 101.286 28.4272C100.551 29.0788 100.184 30.0245 100.184 31.2646C100.184 32.5046 100.521 33.4819 101.194 34.1965C101.888 34.9111 102.857 35.2683 104.101 35.2683C105.203 35.2683 106.07 34.9216 106.702 34.228C107.355 33.5344 107.681 32.5992 107.681 31.4222C107.681 30.2032 107.365 29.2364 106.733 28.5218C106.121 27.8072 105.213 27.4499 104.009 27.4499Z" fill="#151D30"/>
<path d="M115.137 27.1662C115.137 23.5302 115.77 20.6824 117.034 18.6227C118.32 16.563 120.441 15.5332 123.399 15.5332C126.358 15.5332 128.469 16.563 129.734 18.6227C131.019 20.6824 131.662 23.5302 131.662 27.1662C131.662 30.8232 131.019 33.6921 129.734 35.7728C128.469 37.8535 126.358 38.8938 123.399 38.8938C120.441 38.8938 118.32 37.8535 117.034 35.7728C115.77 33.6921 115.137 30.8232 115.137 27.1662ZM127.439 27.1662C127.439 25.6109 127.337 24.3079 127.133 23.257C126.949 22.1851 126.562 21.3129 125.97 20.6403C125.399 19.9678 124.542 19.6315 123.399 19.6315C122.257 19.6315 121.39 19.9678 120.798 20.6403C120.227 21.3129 119.84 22.1851 119.636 23.257C119.452 24.3079 119.36 25.6109 119.36 27.1662C119.36 28.7635 119.452 30.1086 119.636 31.2015C119.819 32.2734 120.207 33.1456 120.798 33.8182C121.39 34.4697 122.257 34.7955 123.399 34.7955C124.542 34.7955 125.409 34.4697 126.001 33.8182C126.592 33.1456 126.98 32.2734 127.163 31.2015C127.347 30.1086 127.439 28.7635 127.439 27.1662Z" fill="#151D30"/>
<path d="M153.718 38.9569L149.005 30.3818H146.985V38.9569H142.701V16.9518H150.719C152.371 16.9518 153.779 17.2566 154.942 17.8661C156.105 18.4546 156.972 19.2637 157.543 20.2936C158.134 21.3024 158.43 22.4373 158.43 23.6984C158.43 25.1485 158.022 26.4621 157.206 27.6391C156.39 28.795 155.176 29.5937 153.565 30.0351L158.675 38.9569H153.718ZM146.985 27.0716H150.566C151.729 27.0716 152.596 26.7879 153.167 26.2204C153.738 25.6319 154.024 24.8228 154.024 23.7929C154.024 22.7841 153.738 22.0065 153.167 21.46C152.596 20.8926 151.729 20.6088 150.566 20.6088H146.985V27.0716Z" fill="#151D30"/>
<path d="M178.064 29.8459C178.064 30.4764 178.024 31.0439 177.942 31.5483H165.549C165.651 32.8093 166.079 33.7971 166.834 34.5117C167.589 35.2263 168.517 35.5836 169.619 35.5836C171.21 35.5836 172.342 34.8795 173.015 33.4714H177.636C177.146 35.1528 176.208 36.5399 174.821 37.6328C173.434 38.7047 171.73 39.2406 169.71 39.2406C168.078 39.2406 166.61 38.8728 165.304 38.1372C164.019 37.3806 163.009 36.3192 162.274 34.9531C161.56 33.587 161.203 32.0107 161.203 30.2242C161.203 28.4167 161.56 26.8299 162.274 25.4638C162.988 24.0977 163.988 23.0468 165.273 22.3112C166.559 21.5756 168.038 21.2078 169.71 21.2078C171.322 21.2078 172.76 21.5651 174.025 22.2797C175.31 22.9943 176.3 24.0136 176.993 25.3377C177.707 26.6408 178.064 28.1435 178.064 29.8459ZM173.627 28.5849C173.607 27.4499 173.209 26.5462 172.434 25.8736C171.659 25.1801 170.71 24.8333 169.588 24.8333C168.527 24.8333 167.63 25.1696 166.895 25.8421C166.181 26.4936 165.743 27.4079 165.579 28.5849H173.627Z" fill="#151D30"/>
<path d="M180.09 30.2242C180.09 28.4167 180.447 26.8404 181.161 25.4953C181.875 24.1292 182.864 23.0783 184.129 22.3427C185.394 21.5861 186.842 21.2078 188.474 21.2078C190.576 21.2078 192.31 21.7543 193.677 22.8472C195.064 23.919 195.992 25.4323 196.461 27.3869H191.841C191.596 26.6303 191.178 26.0418 190.586 25.6214C190.015 25.1801 189.301 24.9594 188.444 24.9594C187.22 24.9594 186.251 25.4218 185.537 26.3465C184.823 27.2503 184.466 28.5428 184.466 30.2242C184.466 31.8846 184.823 33.1771 185.537 34.1019C186.251 35.0056 187.22 35.4575 188.444 35.4575C190.178 35.4575 191.31 34.6588 191.841 33.0615H196.461C195.992 34.9531 195.064 36.4558 193.677 37.5697C192.289 38.6836 190.555 39.2406 188.474 39.2406C186.842 39.2406 185.394 38.8728 184.129 38.1372C182.864 37.3806 181.875 36.3297 181.161 34.9846C180.447 33.6185 180.09 32.0317 180.09 30.2242Z" fill="#151D30"/>
<path d="M203.884 24.2028C204.435 23.278 205.149 22.5529 206.026 22.0275C206.924 21.5021 207.944 21.2393 209.086 21.2393V25.8736H207.954C206.607 25.8736 205.587 26.1994 204.894 26.8509C204.22 27.5025 203.884 28.6374 203.884 30.2557V38.9569H199.6V21.4915H203.884V24.2028Z" fill="#151D30"/>
<path d="M227.976 21.4915V38.9569H223.661V36.7501C223.11 37.5067 222.386 38.1057 221.488 38.547C220.611 38.9674 219.652 39.1775 218.612 39.1775C217.286 39.1775 216.113 38.8938 215.093 38.3264C214.073 37.7379 213.267 36.8867 212.675 35.7728C212.104 34.6378 211.819 33.2927 211.819 31.7374V21.4915H216.103V31.1069C216.103 32.4941 216.439 33.5659 217.113 34.3226C217.786 35.0582 218.704 35.426 219.867 35.426C221.05 35.426 221.978 35.0582 222.651 34.3226C223.324 33.5659 223.661 32.4941 223.661 31.1069V21.4915H227.976Z" fill="#151D30"/>
<path d="M234.375 19.4108C233.621 19.4108 232.988 19.1691 232.478 18.6857C231.989 18.1813 231.744 17.5613 231.744 16.8257C231.744 16.0901 231.989 15.4806 232.478 14.9972C232.988 14.4928 233.621 14.2406 234.375 14.2406C235.13 14.2406 235.752 14.4928 236.242 14.9972C236.752 15.4806 237.007 16.0901 237.007 16.8257C237.007 17.5613 236.752 18.1813 236.242 18.6857C235.752 19.1691 235.13 19.4108 234.375 19.4108ZM236.487 21.4915V38.9569H232.203V21.4915H236.487Z" fill="#151D30"/>
<path d="M245.708 25.117V33.5659C245.708 34.1544 245.84 34.5853 246.105 34.8585C246.391 35.1107 246.86 35.2368 247.513 35.2368H249.502V38.9569H246.809C243.198 38.9569 241.393 37.1494 241.393 33.5344V25.117H239.373V21.4915H241.393V17.1725H245.708V21.4915H249.502V25.117H245.708Z" fill="#151D30"/>
<path d="M268.343 29.8459C268.343 30.4764 268.302 31.0439 268.22 31.5483H255.827C255.929 32.8093 256.357 33.7971 257.112 34.5117C257.867 35.2263 258.795 35.5836 259.897 35.5836C261.488 35.5836 262.62 34.8795 263.294 33.4714H267.914C267.425 35.1528 266.486 36.5399 265.099 37.6328C263.712 38.7047 262.008 39.2406 259.989 39.2406C258.357 39.2406 256.888 38.8728 255.582 38.1372C254.297 37.3806 253.287 36.3192 252.553 34.9531C251.839 33.587 251.482 32.0107 251.482 30.2242C251.482 28.4167 251.839 26.8299 252.553 25.4638C253.267 24.0977 254.266 23.0468 255.552 22.3112C256.837 21.5756 258.316 21.2078 259.989 21.2078C261.6 21.2078 263.039 21.5651 264.304 22.2797C265.589 22.9943 266.578 24.0136 267.272 25.3377C267.986 26.6408 268.343 28.1435 268.343 29.8459ZM263.906 28.5849C263.885 27.4499 263.487 26.5462 262.712 25.8736C261.937 25.1801 260.988 24.8333 259.866 24.8333C258.806 24.8333 257.908 25.1696 257.174 25.8421C256.46 26.4936 256.021 27.4079 255.858 28.5849H263.906Z" fill="#151D30"/>
<path d="M275.754 24.2028C276.305 23.278 277.019 22.5529 277.896 22.0275C278.794 21.5021 279.814 21.2393 280.956 21.2393V25.8736H279.824C278.477 25.8736 277.457 26.1994 276.764 26.8509C276.091 27.5025 275.754 28.6374 275.754 30.2557V38.9569H271.47V21.4915H275.754V24.2028Z" fill="#151D30"/>
<path d="M290.329 39.2406C288.942 39.2406 287.697 38.9884 286.596 38.484C285.494 37.9586 284.617 37.2545 283.964 36.3718C283.332 35.489 282.985 34.5117 282.924 33.4398H287.238C287.32 34.1124 287.636 34.6694 288.187 35.1107C288.758 35.5521 289.462 35.7728 290.298 35.7728C291.114 35.7728 291.747 35.6046 292.196 35.2683C292.665 34.9321 292.899 34.5012 292.899 33.9758C292.899 33.4083 292.614 32.988 292.043 32.7148C291.492 32.4205 290.604 32.1052 289.38 31.769C288.116 31.4537 287.075 31.1279 286.259 30.7917C285.463 30.4554 284.77 29.9405 284.178 29.2469C283.607 28.5533 283.321 27.6181 283.321 26.4411C283.321 25.4743 283.587 24.5916 284.117 23.7929C284.668 22.9943 285.443 22.3638 286.443 21.9014C287.463 21.439 288.656 21.2078 290.023 21.2078C292.043 21.2078 293.654 21.7332 294.858 22.7841C296.062 23.814 296.725 25.2116 296.847 26.977H292.746C292.685 26.2835 292.4 25.737 291.89 25.3377C291.4 24.9174 290.737 24.7072 289.901 24.7072C289.125 24.7072 288.524 24.8543 288.095 25.1485C287.687 25.4428 287.483 25.8526 287.483 26.3781C287.483 26.9665 287.769 27.4184 288.34 27.7337C288.911 28.0279 289.799 28.3327 291.002 28.6479C292.226 28.9632 293.236 29.2889 294.032 29.6252C294.827 29.9615 295.511 30.4869 296.082 31.2015C296.674 31.8951 296.98 32.8198 297 33.9758C297 34.9846 296.725 35.8884 296.174 36.687C295.643 37.4857 294.868 38.1162 293.848 38.5786C292.848 39.0199 291.675 39.2406 290.329 39.2406Z" fill="#151D30"/>
<defs>
<clipPath id="clip0">
<rect width="53" height="52" fill="white" transform="translate(0 0.240601)"/>
</clipPath>
</defs>
</svg>